<?xml version="1.0" encoding="UTF-8"?>
<svg width="124px" height="124px" viewBox="0 0 124 124" version="1.1" xmlns="http://www.w3.org/2000/svg" xmlns:xlink="http://www.w3.org/1999/xlink">
    <!-- Generator: Sketch 52.2 (67145) - http://www.bohemiancoding.com/sketch -->
    <title>noun_Love_815466</title>
    <desc>Created with Sketch.</desc>
    <g id="Page-1" stroke="none" stroke-width="1" fill="none" fill-rule="evenodd">
        <g id="Desktop" transform="translate(-734.000000, -1509.000000)" fill-rule="nonzero">
            <g id="noun_Love_815466" transform="translate(734.000000, 1509.000000)">
                <path d="M62.0196238,91.6080908 C61.2458853,91.6080908 60.5076566,91.2884983 59.977814,90.7259409 L35.8480135,65.0763109 C29.5926931,58.418135 29.9178875,47.9108324 36.5712908,41.6516798 C39.6578344,38.7529203 43.6863206,37.156827 47.9175861,37.156827 C52.4768493,37.156827 56.8800567,39.0622334 59.9993067,42.3843128 L62.0018689,44.5139946 L64.0034967,42.3833783 C67.1218123,39.0622334 71.5250196,37.156827 76.0824139,37.156827 C80.310876,37.156827 84.3402966,38.7529203 87.4259058,41.6498108 C94.083047,47.9089635 94.4101103,58.416266 88.1538554,65.0753764 L64.0642371,90.7240719 C63.5353289,91.2884983 62.7961657,91.6080908 62.0224272,91.6080908 L62.0196238,91.6080908 Z M47.9175861,42.7627775 C45.1188581,42.7627775 42.4528245,43.8187409 40.4119491,45.7362955 C36.0106107,49.8769801 35.7956834,56.830452 39.9335021,61.2346602 L62.0186893,84.7116222 L84.0674323,61.2355947 C88.20712,56.8295175 87.9903237,49.8769801 83.5861819,45.7353611 C81.5453066,43.8187409 78.8792729,42.7627775 76.0824139,42.7627775 C73.0229698,42.7627775 70.1840598,43.9906853 68.0908543,46.2212911 L64.0455477,50.5264443 C62.9858624,51.6524937 61.0197444,51.6543627 59.9591246,50.5264443 L55.9128836,46.2222256 C53.8178091,43.9916198 50.9788991,42.7627775 47.9175861,42.7627775 Z" id="Shape" fill="#FFFFFF"></path>
                <path d="M21.4310605,106.454188 L31.8690541,96.0132335 C32.2241514,95.6571963 32.4222584,95.1731352 32.4157171,94.66945 C32.4091759,94.1657648 32.2017242,93.6863762 31.8372822,93.3396838 C31.434527,92.9546777 31.0373787,92.5575233 30.649575,92.1547621 C30.3010189,91.793118 29.8225719,91.5875322 29.3207632,91.5828598 C29.3151564,91.5828598 29.3095496,91.5828598 29.3030084,91.5828598 C28.807741,91.5828598 28.3320974,91.7800353 27.9816724,92.1304656 L17.5436788,102.569551 C16.8185326,103.293774 16.8129258,104.467482 17.5305963,105.19918 C17.9501718,105.626238 18.3753542,106.053296 18.8061434,106.471943 C19.1687165,106.824242 19.6387532,106.999925 20.10879,106.999925 C20.5881715,107.001794 21.0666184,106.81957 21.4310605,106.454188 Z" id="Path" fill="#C59C31"></path>
                <path d="M17.9697956,64.1932265 C18.3211551,63.8381238 18.5145897,63.3559317 18.5089829,62.8569189 L18.4977693,61.9990655 L18.5089829,61.1430811 C18.5145897,60.6440683 18.3211551,60.1618762 17.9697956,59.8067735 C17.6193706,59.4507363 17.1399891,59.2507574 16.6400494,59.2507574 L1.88201604,59.2507574 C0.863447278,59.2507574 0.0327063363,60.0665592 0.0130825345,61.0851433 L0.00934466751,61.2608257 C0.00467233376,61.5075286 0,61.7514281 0,61.998131 C0,62.2457685 0.00467233376,62.4915369 0.00934466751,62.7391743 L0.0130825345,62.9139223 C0.0317718695,63.9325064 0.863447278,64.7483081 1.88201604,64.7483081 L16.6400494,64.7483081 C17.1399891,64.7483081 17.6184361,64.5492637 17.9697956,64.1932265 Z" id="Path" fill="#C59C31"></path>
                <path d="M123.988786,62.9027085 L123.992524,62.6167574 C123.996262,62.4102371 124,62.2055858 124,61.9990655 C124,61.7925453 123.996262,61.5888284 123.992524,61.3832426 L123.988786,61.0972915 C123.975704,60.0731005 123.143094,59.2507574 122.119853,59.2507574 L107.359951,59.2507574 C106.856273,59.2507574 106.374088,59.4544742 106.021794,59.8151838 C105.6695,60.1758934 105.478869,60.6627579 105.491017,61.1664431 C105.498493,61.4449184 105.5041,61.7205902 105.5041,61.9990655 C105.5041,62.2775408 105.498493,62.5550816 105.491017,62.8335569 C105.478869,63.3372421 105.6695,63.8250411 106.021794,64.1848162 C106.374088,64.5445913 106.856273,64.7492426 107.359951,64.7492426 L122.119853,64.7492426 C123.143094,64.7483081 123.975704,63.9268995 123.988786,62.9027085 Z" id="Path" fill="#C59C31"></path>
                <path d="M105.190119,106.476615 C105.623711,106.057033 106.047959,105.629976 106.467535,105.201049 C107.185205,104.469351 107.179598,103.295643 106.454452,102.57142 L96.0164587,92.1323345 C95.6622958,91.7781663 95.1474046,91.6006149 94.6773678,91.5847288 C94.1755592,91.5894012 93.6961777,91.7959214 93.3485561,92.156631 C92.9607524,92.5603268 92.563604,92.9584156 92.1580455,93.3471596 C91.7954724,93.6947865 91.5889552,94.1741752 91.5833484,94.6769259 C91.5777416,95.1787421 91.7749141,95.6628031 92.1309459,96.0179059 L102.56894,106.455122 C102.934316,106.820504 103.411829,107.002728 103.890276,107.002728 C104.358443,107.001794 104.827546,106.827046 105.190119,106.476615 Z" id="Path" fill="#C59C31"></path>
                <path d="M29.3207632,32.4134023 C29.8225719,32.4087299 30.3010189,32.2031441 30.6486405,31.8424345 C31.0383131,31.4387388 31.4382649,31.0415844 31.8438235,30.6509714 C32.2054621,30.3033445 32.4110448,29.8239559 32.4157171,29.3221397 C32.4203895,28.8203235 32.223217,28.3381313 31.8681196,27.9830286 L21.430126,17.5458122 C20.7087177,16.8234585 19.5396998,16.8159826 18.8061434,17.5261881 C18.3744197,17.94577 17.9483029,18.3718932 17.5268584,18.8036234 C16.8129258,19.5362563 16.821336,20.7062264 17.5446133,21.4295145 L27.9826069,31.8657965 C28.3330319,32.2162268 28.8086755,32.4134023 29.3039428,32.4134023 C29.3104841,32.4134023 29.3151564,32.4134023 29.3207632,32.4134023 Z" id="Path" fill="#C59C31"></path>
                <path d="M64.1847833,17.9803458 C64.5454874,17.628981 64.7492012,17.1458544 64.7492012,16.6421692 L64.7492012,1.87924096 C64.7492012,0.853181003 63.9221981,0.0205585784 62.8980225,0.0102792892 L61.9990655,0 L61.1038464,0.0102792892 C60.0787364,0.0205585784 59.2526678,0.853181003 59.2526678,1.87924096 L59.2526678,16.6421692 C59.2526678,17.1458544 59.4563815,17.628981 59.8170857,17.9803458 C60.1777898,18.3317106 60.6571713,18.5176722 61.1683246,18.5101964 C61.7290046,18.4971137 62.2812745,18.4971137 62.8344788,18.5101964 C62.8503647,18.5111309 62.8653162,18.5111309 62.8812021,18.5111309 C63.3671249,18.5111309 63.8352927,18.3214313 64.1847833,17.9803458 Z" id="Path" fill="#C59C31"></path>
                <path d="M62.6756195,123.99159 L62.9054983,123.987852 C63.925936,123.971031 64.7454633,123.140278 64.7454633,122.11889 L64.7454633,107.357831 C64.7454633,106.856015 64.5436185,106.374757 64.1847833,106.023392 C63.8268825,105.672027 63.3260083,105.500083 62.8410201,105.488869 L62.7354253,105.491673 C62.2532405,105.500083 61.7626454,105.501017 61.2701815,105.491673 L61.1552421,105.488869 C60.6487611,105.494476 60.1693796,105.672027 59.8114789,106.023392 C59.4535781,106.375691 59.2517333,106.856015 59.2517333,107.357831 L59.2517333,122.11889 C59.2517333,123.140278 60.0703262,123.971031 61.0916983,123.987852 L61.3290529,123.99159 C61.5523904,123.996262 61.775728,124 61.9981311,124 C62.226141,124 62.4513474,123.996262 62.6756195,123.99159 Z" id="Path" fill="#C59C31"></path>
                <path d="M96.0164587,31.8657965 L106.454452,21.4295145 C107.176795,20.7071608 107.185205,19.5371908 106.472207,18.8036234 C106.050763,18.3709587 105.624646,17.943901 105.190119,17.5233846 C104.457497,16.8159826 103.291282,16.8234585 102.56894,17.5448777 L92.1309459,27.9820941 C91.7749141,28.3371969 91.5777416,28.8203235 91.5833484,29.3230741 C91.5889552,29.8258248 91.7964068,30.3052135 92.1580455,30.6528404 C92.565473,31.0425189 92.9607524,31.4396732 93.3494906,31.8415 C93.6980467,32.2031441 94.1764936,32.4077954 94.6783023,32.4124678 C94.6839091,32.4124678 94.6895159,32.4124678 94.6951227,32.4124678 C95.1913245,32.4134023 95.6660336,32.2162268 96.0164587,31.8657965 Z" id="Path" fill="#C59C31"></path>
            </g>
        </g>
    </g>
</svg>