<?xml version="1.0" encoding="UTF-8"?>
<svg width="112px" height="112px" viewBox="0 0 112 112" version="1.1" xmlns="http://www.w3.org/2000/svg" xmlns:xlink="http://www.w3.org/1999/xlink">
    <!-- Generator: Sketch 52.2 (67145) - http://www.bohemiancoding.com/sketch -->
    <title>noun_verified_1627977</title>
    <desc>Created with Sketch.</desc>
    <g id="Page-1" stroke="none" stroke-width="1" fill="none" fill-rule="evenodd">
        <g id="Desktop" transform="translate(-150.000000, -1520.000000)" fill-rule="nonzero">
            <g id="noun_verified_1627977" transform="translate(150.000000, 1520.000000)">
                <polygon id="Shape" fill="#C59C31" points="52.2596685 59.0797101 41.9281768 48.6086957 35 55.6304348 52.1381215 73 79 46.0217391 72.0718232 39"></polygon>
                <path d="M108.625196,60.2933333 C110.677952,60.1066667 112.170865,58.24 111.984251,56.1866667 L110.491338,37.52 C110.491338,36.4 109.931495,35.4666667 109.185039,34.9066667 C108.251968,34.16 107.318897,33.9733333 106.385826,33.9733333 L102.840157,34.16 L97.9881885,26.1333333 L99.8543302,23.8933333 C101.347244,22.4 100.974015,19.9733333 99.4811018,18.6666667 L85.1118107,6.72 C83.6188973,5.22666667 81.1929131,5.6 79.8866139,7.09333333 L76.714173,10.8266667 L69.2496061,7.46666667 L69.2496061,3.73333333 C69.2496061,1.68 67.5700786,0 65.5173227,0 L46.6692915,0 C44.6165356,0 42.937008,1.68 42.937008,3.73333333 L42.937008,7.65333333 L35.4724412,11.2 L32.4866145,7.46666667 C31.7401578,6.72 30.8070869,6.16 29.8740161,6.16 C28.9409452,6.16 28.0078744,6.53333333 27.2614177,7.09333333 L12.8921265,19.04 C11.3992131,20.3466667 11.212599,22.7733333 12.5188982,24.2666667 L14.9448824,27.0666667 L10.2795281,34.5333333 L5.61417384,34.16 C3.56141796,33.9733333 1.69527625,35.4666667 1.50866208,37.52 L0.0157487103,56.1866667 C-0.170865461,58.24 1.32204791,60.1066667 3.37480379,60.2933333 L5.05433133,60.48 L6.92047304,69.44 L4.30787464,70.9333333 C3.56141796,71.4933333 2.81496127,72.24 2.6283471,73.1733333 C2.44173293,74.1066667 2.44173293,75.04 3.00157545,75.9733333 L12.332284,92.2133333 C12.8921265,93.3333333 14.1984257,94.08 15.5047249,94.08 C16.0645674,94.08 16.8110241,93.8933333 17.3708666,93.52 L20.9165359,91.4666667 L26.8881893,97.44 L25.5818901,100.8 C25.0220476,102.666667 26.1417326,104.72 28.0078744,105.466667 L45.5496064,111.813333 C45.9228348,112 46.4826773,112 46.8559056,112 C48.5354332,112 49.8417324,111.066667 50.4015749,109.573333 L51.5212599,106.4 L60.6653543,106.4 L61.7850393,109.573333 C61.9716535,110.506667 62.7181102,111.253333 63.651181,111.626667 C64.0244094,111.813333 64.5842519,112 65.1440944,112 C65.5173227,112 66.0771652,112 66.4503936,111.813333 L83.9921256,105.466667 C85.8582674,104.72 86.9779524,102.48 86.2314957,100.613333 L85.2984248,97.8133333 L92.2031492,91.6533333 L94.8157476,93.1466667 C95.3755901,93.52 96.1220468,93.7066667 96.6818893,93.7066667 C96.8685034,93.7066667 97.2417318,93.7066667 97.6149601,93.52 C98.548031,93.3333333 99.2944877,92.7733333 99.8543302,91.84 L109.185039,75.6 C110.304724,73.92 109.744881,71.68 107.87874,70.56 L104.33307,68.5066667 L105.639369,60.2933333 L108.625196,60.2933333 Z M106.759055,37.8933333 L108.251968,56.56 L106.385826,56.7466667 L106.385826,56.3733333 C106.57244,55.2533333 105.825984,54.32 104.892913,53.9466667 C103.773228,53.76 102.840157,54.5066667 102.653543,55.44 L102.466929,56.9333333 L100.787401,57.12 L99.2944877,38.4533333 L100.787401,38.2666667 L102.280314,40.6933333 C102.653543,41.6266667 103.959842,41.8133333 104.892913,41.2533333 C105.639369,40.6933333 106.012598,39.5733333 105.452755,38.64 L105.079527,38.08 L106.759055,37.8933333 Z M82.4992123,9.89333333 L96.8685034,21.84 L95.9354326,22.96 L95.7488184,22.7733333 C95.1889759,22.0266667 94.0692909,21.6533333 93.13622,22.2133333 C92.3897633,22.7733333 92.016535,23.8933333 92.5763775,24.8266667 L93.3228342,26.1333333 L92.016535,27.6266667 L77.6472438,15.68 L79.6999997,16.6133333 C80.6330706,16.9866667 81.7527556,16.6133333 82.1259839,15.68 C82.4992123,14.7466667 82.1259839,13.6266667 81.1929131,13.2533333 L80.0732281,12.6933333 L82.4992123,9.89333333 Z M46.6692915,3.73333333 L65.3307085,3.73333333 L65.3307085,5.97333333 L64.2110235,5.41333333 C63.2779527,5.04 62.1582676,5.41333333 61.7850393,6.34666667 C61.411811,7.28 61.7850393,8.4 62.7181102,8.77333333 L65.3307085,9.89333333 L65.3307085,11.2 L46.6692915,11.2 L46.6692915,9.89333333 L48.5354332,8.96 C49.468504,8.58666667 49.8417324,7.46666667 49.468504,6.53333333 C49.0952757,5.6 47.9755906,5.22666667 47.0425198,5.6 L46.6692915,5.78666667 L46.6692915,3.73333333 Z M15.1314966,21.84 L29.5007877,9.89333333 L31.9267719,12.88 L31.1803153,13.2533333 C30.2472444,13.6266667 29.8740161,14.7466667 30.2472444,15.68 C30.6204727,16.6133333 31.7401578,16.9866667 32.6732286,16.6133333 L33.9795278,16.0533333 L19.983465,27.6266667 L19.4236225,26.88 L20.5433075,25.2 C21.10315,24.2666667 20.9165359,23.1466667 19.983465,22.5866667 C19.0503941,22.0266667 17.9307091,22.2133333 17.3708666,23.1466667 L16.8110241,23.8933333 L15.1314966,21.84 Z M3.74803213,56.56 L5.2409455,37.8933333 L7.85354389,38.08 C7.29370138,39.0133333 7.48031555,40.1333333 8.4133864,40.6933333 C9.15984309,41.2533333 10.4661423,41.0666667 11.0259848,40.1333333 L12.1456698,38.4533333 L12.7055123,38.4533333 L11.212599,57.12 L8.4133864,56.9333333 L8.04015806,55.0666667 C7.66692972,54.1333333 6.73385887,53.5733333 5.61417384,53.76 C4.68110298,53.9466667 3.9346463,54.88 4.12126047,56 L4.30787464,56.56 L3.74803213,56.56 Z M15.3181107,90.3466667 L5.98740218,74.1066667 L7.66692972,73.1733333 L7.66692972,73.36 C7.85354389,74.2933333 8.78661475,75.04 9.90629977,74.8533333 C11.0259848,74.48 11.7724415,73.5466667 11.5858273,72.4266667 L11.3992131,71.12 L12.5188982,70.3733333 L21.8496067,86.6133333 L21.6629925,86.8 L19.983465,85.12 C19.2370083,84.3733333 18.1173233,84.3733333 17.3708666,85.12 C16.6244099,85.8666667 16.6244099,86.9866667 17.3708666,87.7333333 L18.3039375,88.6666667 L15.3181107,90.3466667 Z M46.8559056,108.266667 L29.3141736,101.92 L29.8740161,100.24 L30.0606302,100.24 C30.8070869,100.986667 31.9267719,100.986667 32.6732286,100.24 C33.4196853,99.4933333 33.4196853,98.3733333 32.6732286,97.6266667 L31.3669294,96.32 L31.9267719,94.8266667 L49.468504,101.173333 L48.9086615,102.666667 L46.6692915,102.666667 C45.5496064,102.666667 44.8031497,103.413333 44.8031497,104.533333 C44.8031497,105.653333 45.5496064,106.4 46.6692915,106.4 L47.6023623,106.4 L46.8559056,108.266667 Z M82.6858264,102.106667 L65.1440944,108.453333 L64.3976377,106.4 L65.3307085,106.4 C66.4503936,106.4 67.1968503,105.653333 67.1968503,104.533333 C67.1968503,103.413333 66.4503936,102.666667 65.3307085,102.666667 L63.0913385,102.666667 L62.531496,101.36 L80.0732281,95.0133333 L80.8196847,96.88 L79.5133855,98 C78.7669289,98.7466667 78.5803147,99.8666667 79.3267714,100.613333 C80.0732281,101.36 81.1929131,101.546667 81.9393698,100.8 L82.1259839,100.613333 L82.6858264,102.106667 Z M106.012598,74.1066667 L96.6818893,90.3466667 L95.0023617,89.4133333 L95.9354326,88.48 C96.6818893,87.7333333 96.6818893,86.6133333 96.1220468,85.8666667 C95.3755901,85.12 94.255905,84.9333333 93.5094484,85.68 L91.4566925,87.36 L90.1503933,86.6133333 L99.4811018,70.3733333 L100.227559,70.7466667 L99.667716,73.92 C99.4811018,75.04 100.227559,75.9733333 101.160629,76.16 C102.280314,76.3466667 103.213385,75.6 103.399999,74.6666667 L103.773228,72.8 L106.012598,74.1066667 Z M100.787401,66.8266667 C100.040944,66.64 99.2944877,66.64 98.548031,66.64 C97.6149601,66.8266667 96.8685034,67.3866667 96.3086609,68.32 L86.9779524,84.56 C85.8582674,86.24 86.4181099,88.48 88.2842516,89.6 L88.8440941,89.7866667 L83.9921256,94.08 L83.8055115,93.3333333 C83.6188973,92.4 82.8724406,91.84 81.9393698,91.28 C81.0062989,90.72 80.0732281,90.72 79.1401572,91.0933333 L61.5984251,97.44 C59.7322834,98.1866667 58.6125984,100.426667 59.3590551,102.293333 L59.3590551,102.48 L52.8275591,102.48 L53.0141733,102.106667 C53.2007874,101.173333 53.2007874,100.24 52.8275591,99.3066667 C52.4543308,98.3733333 51.7078741,97.8133333 50.7748032,97.44 L33.2330711,91.0933333 C32.3000003,90.9066667 31.3669294,90.9066667 30.4338586,91.28 C29.5007877,91.6533333 28.9409452,92.4 28.5677169,93.3333333 L24.2755909,89.4133333 C25.7685043,88.2933333 26.3283468,86.4266667 25.2086618,84.56 L15.8779532,68.32 C14.9448824,66.64 12.7055123,66.08 10.8393706,67.0133333 L10.4661423,67.2 L9.15984309,60.6666667 L10.8393706,60.8533333 C11.212599,60.8533333 11.3992131,60.8533333 11.5858273,60.8533333 C12.332284,60.8533333 13.0787407,60.48 13.6385832,60.1066667 C14.3850399,59.36 14.9448824,58.4266667 14.9448824,57.4933333 L16.4377958,38.8266667 C16.6244099,37.1466667 15.6913391,35.6533333 14.1984257,35.0933333 L17.3708666,30.0533333 C18.1173233,30.9866667 19.0503941,31.36 20.1700792,31.36 C20.9165359,31.36 21.8496067,31.1733333 22.4094492,30.6133333 L36.9653546,18.6666667 C37.7118112,17.92 38.2716538,16.9866667 38.2716538,16.0533333 C38.2716538,15.3066667 38.0850396,14.7466667 37.8984254,14.1866667 L42.937008,11.5733333 C43.1236222,13.44 44.8031497,14.9333333 46.6692915,14.9333333 L65.3307085,14.9333333 C67.1968503,14.9333333 68.6897636,13.44 69.062992,11.76 L74.2881888,14.1866667 C74.1015746,14.7466667 73.9149604,15.3066667 73.9149604,16.0533333 C73.9149604,17.1733333 74.4748029,18.1066667 75.2212596,18.6666667 L89.5905508,30.6133333 C90.3370075,31.1733333 91.0834641,31.5466667 92.016535,31.5466667 C92.9496059,31.5466667 94.0692909,31.1733333 94.8157476,30.0533333 L95.3755901,29.4933333 L98.548031,34.72 C96.6818893,35.0933333 95.3755901,36.7733333 95.5622042,38.8266667 L97.0551176,57.4933333 C97.0551176,58.6133333 97.6149601,59.5466667 98.3614168,60.1066667 C98.9212593,60.6666667 99.667716,61.04 100.414173,61.04 C100.787401,61.04 100.974015,61.04 101.160629,61.04 L101.720472,61.04 L100.787401,66.8266667 Z" id="Shape" fill="#FFFFFF"></path>
            </g>
        </g>
    </g>
</svg>