<?xml version="1.0" encoding="UTF-8"?>
<svg width="142px" height="95px" viewBox="0 0 142 95" version="1.1" xmlns="http://www.w3.org/2000/svg" xmlns:xlink="http://www.w3.org/1999/xlink">
    <!-- Generator: Sketch 52.2 (67145) - http://www.bohemiancoding.com/sketch -->
    <title>Group 4</title>
    <desc>Created with Sketch.</desc>
    <g id="Page-1" stroke="none" stroke-width="1" fill="none" fill-rule="evenodd">
        <g id="Desktop" transform="translate(-417.000000, -992.000000)">
            <g id="Group-4" transform="translate(417.000000, 992.000000)">
                <path d="M26.075,55.05 C15.875,55.05 8.825,48.15 7.925,41.1 L11.9,39.825 C12.8,46.65 18.725,51.3 26.075,51.3 C34.475,51.3 40.025,45.45 40.025,37.65 C40.025,29.925 34.4,24 26,24 C20.75,24 16.475,26.7 14.675,28.8 L10.7,27.45 L13.625,1.5 L40.85,1.5 L40.85,5.25 L17,5.25 L14.9,23.85 C16.775,22.275 21.05,20.25 26.075,20.25 C36.8,20.25 44.075,27.75 44.075,37.65 C44.075,47.7 35.975,55.05 26.075,55.05 Z M70.4,55.05 C57.05,55.05 51.575,42.45 51.575,27.45 C51.575,12.975 57.2,0.45 70.4,0.45 C83.45,0.45 89.075,12.975 89.075,27.45 C89.075,42.525 83.75,55.05 70.4,55.05 Z M70.4,51.3 C80.75,51.3 84.875,40.275 84.875,27.75 C84.875,15.675 80.675,4.2 70.4,4.2 C60.05,4.2 55.7,15.675 55.7,27.75 C55.7,39.825 59.975,51.3 70.4,51.3 Z M115.4,55.05 C102.05,55.05 96.575,42.45 96.575,27.45 C96.575,12.975 102.2,0.45 115.4,0.45 C128.45,0.45 134.075,12.975 134.075,27.45 C134.075,42.525 128.75,55.05 115.4,55.05 Z M115.4,51.3 C125.75,51.3 129.875,40.275 129.875,27.75 C129.875,15.675 125.675,4.2 115.4,4.2 C105.05,4.2 100.7,15.675 100.7,27.75 C100.7,39.825 104.975,51.3 115.4,51.3 Z M61.4345,79.3 L61.4135,94 L58.4105,94 L58.4105,84.949 L54.5465,94 L52.4885,94 L48.6455,85.033 L48.6455,94 L45.6215,94 L45.6215,79.3 L48.9605,79.3 L53.5175,89.905 L58.0745,79.3 L61.4345,79.3 Z M64.3535,94 L64.3535,79.3 L67.3775,79.3 L67.3775,94 L64.3535,94 Z M70.2965,94 L70.2965,79.3 L73.4045,79.3 L79.7465,89.044 L79.7465,79.3 L82.7705,79.3 L82.7705,94 L79.6835,94 L73.3205,84.277 L73.3205,94 L70.2965,94 Z M85.6895,94 L85.6895,79.3 L88.7135,79.3 L88.7135,94 L85.6895,94 Z M107.4455,79.3 L107.4245,94 L104.4215,94 L104.4215,84.949 L100.5575,94 L98.4995,94 L94.6565,85.033 L94.6565,94 L91.6325,94 L91.6325,79.3 L94.9715,79.3 L99.5285,89.905 L104.0855,79.3 L107.4455,79.3 Z M116.3495,94.294 C113.2415,94.294 110.3645,92.635 110.3645,88.036 L110.3645,79.3 L113.3885,79.3 L113.3885,87.889 C113.3885,90.304 114.3125,91.48 116.3495,91.48 C118.4075,91.48 119.2685,90.199 119.2685,87.889 L119.2685,79.3 L122.2925,79.3 L122.2925,88.057 C122.2925,92.656 119.5625,94.294 116.3495,94.294 Z M141.0245,79.3 L141.0035,94 L138.0005,94 L138.0005,84.949 L134.1365,94 L132.0785,94 L128.2355,85.033 L128.2355,94 L125.2115,94 L125.2115,79.3 L128.5505,79.3 L133.1075,89.905 L137.6645,79.3 L141.0245,79.3 Z" id="500-ETH-MINIMUM" fill="#FFFFFF"></path>
                <polygon id="Path" fill="#C59C31" fill-rule="nonzero" points="0.9545 94 0.9545 79.3 10.3625 79.3 10.3625 82.03 3.9785 82.03 3.9785 85.285 9.4595 85.285 9.4595 87.931 3.9785 87.931 3.9785 91.27 10.3625 91.27 10.3625 94"></polygon>
                <polygon id="Path" fill="#C59C31" fill-rule="nonzero" points="15.7805 94 15.7805 82.114 11.6855 82.114 11.6855 79.3 22.8995 79.3 22.8995 82.114 18.8045 82.114 18.8045 94"></polygon>
                <polygon id="Path" fill="#C59C31" fill-rule="nonzero" points="24.8315 94 24.8315 79.3 27.8555 79.3 27.8555 85.138 33.7985 85.138 33.7985 79.3 36.8225 79.3 36.8225 94 33.7985 94 33.7985 87.952 27.8555 87.952 27.8555 94"></polygon>
            </g>
        </g>
    </g>
</svg>