<?xml version="1.0" encoding="UTF-8"?>
<svg width="117px" height="97px" viewBox="0 0 117 97" version="1.1" xmlns="http://www.w3.org/2000/svg" xmlns:xlink="http://www.w3.org/1999/xlink">
    <!-- Generator: Sketch 52.2 (67145) - http://www.bohemiancoding.com/sketch -->
    <title>noun_private chat_451522</title>
    <desc>Created with Sketch.</desc>
    <g id="Page-1" stroke="none" stroke-width="1" fill="none" fill-rule="evenodd">
        <g id="Desktop" transform="translate(-740.000000, -982.000000)" fill-rule="nonzero">
            <g id="noun_private-chat_451522" transform="translate(740.000000, 982.000000)">
                <path d="M10.96875,77.563327 C3.8390625,69.1285444 0,58.8601134 0,48.4083176 C0,21.637051 24.496875,0 54.6609375,0 C82.63125,0 105.848438,18.5198488 108.95625,43.0907372 C109.139063,44.7410208 108.042188,46.2079395 106.396875,46.3913043 C104.751563,46.5746692 103.289062,45.4744802 103.10625,43.8241966 C100.364063,22.1871456 79.5234375,5.86767486 54.6609375,5.86767486 C27.7875,5.86767486 5.85,24.9376181 5.85,48.4083176 C5.85,58.1266541 9.50625,67.294896 16.6359375,74.9962193 C17.3671875,75.7296786 17.55,77.0132325 17.184375,77.9300567 C15.721875,81.7807183 13.7109375,84.8979206 10.96875,87.4650284 C14.990625,87.4650284 20.109375,86.9149338 25.0453125,83.9810964 C25.959375,83.4310019 27.05625,83.4310019 27.9703125,83.9810964 C35.83125,88.5652174 45.1546875,90.9489603 54.6609375,90.9489603 C59.7796875,90.9489603 64.8984375,90.2155009 69.834375,88.9319471 C71.296875,88.5652174 72.9421875,89.4820416 73.490625,90.9489603 C73.85625,92.415879 72.9421875,94.0661626 71.4796875,94.6162571 C66.178125,96.0831758 60.5109375,97 54.6609375,97 C44.7890625,97 35.1,94.6162571 26.5078125,90.0321361 C18.646875,94.0661626 10.603125,93.6994329 6.3984375,93.1493384 C4.5703125,92.9659735 3.1078125,91.6824197 2.7421875,89.8487713 C2.3765625,88.0151229 3.1078125,86.1814745 4.5703125,85.2646503 C7.3125,83.2476371 9.50625,80.6805293 10.96875,77.563327 Z M51.0046875,48.4083176 C51.0046875,50.4253308 52.65,51.8922495 54.478125,51.8922495 C56.30625,51.8922495 57.9515625,50.241966 57.9515625,48.4083176 C57.9515625,46.3913043 56.30625,44.9243856 54.478125,44.9243856 C52.65,44.9243856 51.0046875,46.3913043 51.0046875,48.4083176 Z M36.0140625,48.4083176 C36.0140625,50.4253308 37.659375,51.8922495 39.4875,51.8922495 C41.4984375,51.8922495 42.9609375,50.241966 42.9609375,48.4083176 C42.9609375,46.3913043 41.315625,44.9243856 39.4875,44.9243856 C37.659375,44.9243856 36.0140625,46.3913043 36.0140625,48.4083176 Z M65.9953125,48.4083176 C65.9953125,50.4253308 67.640625,51.8922495 69.46875,51.8922495 C71.296875,51.8922495 73.125,50.4253308 73.125,48.4083176 C73.125,46.3913043 71.4796875,44.9243856 69.6515625,44.9243856 C67.8234375,44.9243856 65.9953125,46.3913043 65.9953125,48.4083176 Z" id="Shape" fill="#FFFFFF"></path>
                <path d="M117,75.7296786 L117,91.1323251 C117,94.2495274 114.440625,96.8166352 111.332813,96.8166352 L84.6421875,96.8166352 C81.534375,96.8166352 78.975,94.2495274 78.975,91.1323251 L78.975,75.7296786 C78.975,72.7958412 81.3515625,70.2287335 84.2765625,70.0453686 L84.2765625,64.5444234 C84.2765625,56.8431002 90.4921875,50.7920605 97.9875,50.7920605 C105.665625,50.7920605 111.698437,57.026465 111.698437,64.5444234 L111.698437,70.0453686 C114.80625,70.2287335 117,72.7958412 117,75.7296786 Z M90.1265625,70.0453686 L106.03125,70.0453686 L106.03125,64.5444234 C106.03125,60.1436673 102.557813,56.6597353 98.1703125,56.6597353 C93.7828125,56.6597353 90.309375,60.1436673 90.309375,64.5444234 L90.309375,70.0453686 L90.1265625,70.0453686 Z M111.15,75.9130435 L84.825,75.9130435 L84.825,90.9489603 L111.15,90.9489603 L111.15,75.9130435 Z" id="Combined-Shape" fill="#C59C31"></path>
            </g>
        </g>
    </g>
</svg>