<?xml version="1.0" encoding="UTF-8"?>
<svg width="112px" height="94px" viewBox="0 0 112 94" version="1.1" xmlns="http://www.w3.org/2000/svg" xmlns:xlink="http://www.w3.org/1999/xlink">
    <!-- Generator: Sketch 52.2 (67145) - http://www.bohemiancoding.com/sketch -->
    <title>noun_anonymous_1233248</title>
    <desc>Created with Sketch.</desc>
    <g id="Page-1" stroke="none" stroke-width="1" fill="none" fill-rule="evenodd">
        <g id="Desktop" transform="translate(-432.000000, -1528.000000)">
            <g id="noun_anonymous_1233248" transform="translate(432.000000, 1528.000000)">
                <g id="Group">
                    <path d="M58.95,71.992 C58.936,71.907 58.92,71.825 58.899,71.743 C58.873,71.639 58.841,71.539 58.804,71.438 C58.773,71.355 58.741,71.274 58.703,71.194 C58.658,71.099 58.608,71.008 58.553,70.917 C58.508,70.843 58.462,70.771 58.41,70.702 C58.347,70.616 58.279,70.535 58.207,70.456 C58.147,70.391 58.086,70.328 58.021,70.268 C57.946,70.2 57.869,70.136 57.786,70.074 C57.705,70.014 57.622,69.959 57.535,69.907 C57.49,69.88 57.453,69.846 57.407,69.821 L42.837,62.076 C39.144,60.113 36.499,56.647 35.58,52.567 C35.577,52.553 35.57,52.541 35.567,52.527 C35.564,52.512 35.564,52.498 35.56,52.483 C35.538,52.396 35.499,52.318 35.469,52.235 C35.436,52.14 35.408,52.043 35.366,51.953 C35.323,51.861 35.268,51.779 35.216,51.693 C35.166,51.61 35.122,51.524 35.065,51.447 C35.005,51.366 34.936,51.297 34.869,51.223 C34.806,51.153 34.747,51.08 34.678,51.017 C34.605,50.95 34.524,50.895 34.445,50.836 C34.37,50.78 34.298,50.72 34.219,50.671 C34.136,50.62 34.047,50.582 33.959,50.539 C33.874,50.497 33.791,50.452 33.702,50.418 C33.61,50.384 33.514,50.363 33.419,50.338 C33.327,50.314 33.238,50.284 33.144,50.269 C33.043,50.252 32.94,50.251 32.838,50.245 C32.745,50.239 32.653,50.228 32.558,50.231 C32.451,50.235 32.342,50.255 32.234,50.271 C32.154,50.282 32.075,50.282 31.994,50.3 C31.981,50.303 31.969,50.309 31.956,50.313 C31.941,50.317 31.926,50.316 31.91,50.32 L24.597,52.188 C21.689,52.931 19.899,55.798 20.523,58.716 L21.971,65.494 L8.822,68.272 C7.731,68.502 6.858,69.318 6.555,70.392 L1.051,89.875 C0.601,91.469 1.528,93.127 3.123,93.578 C3.395,93.655 3.67,93.692 3.94,93.692 C5.249,93.692 6.452,92.828 6.826,91.506 L11.837,73.768 L24.89,71.01 L37.247,79.576 C37.768,79.937 38.364,80.111 38.954,80.111 C39.904,80.111 40.839,79.66 41.422,78.819 C42.366,77.458 42.027,75.589 40.666,74.645 L28.223,66.019 L26.488,57.898 L30.639,56.838 C32.397,61.328 35.703,65.078 40.024,67.375 L53.001,74.273 L53.001,90.692 C53.001,92.349 54.344,93.692 56.001,93.692 C57.658,93.692 59.001,92.349 59.001,90.692 L59.001,72.47 C59.001,72.426 58.99,72.385 58.988,72.341 C58.98,72.223 58.969,72.108 58.95,71.992 Z" id="Path" fill="#FFFFFF"></path>
                    <path d="M110.947,89.875 L105.442,70.392 C105.14,69.322 104.27,68.507 103.182,68.274 L90.215,65.501 L91.665,58.716 C92.289,55.798 90.499,52.93 87.591,52.188 L80.278,50.32 C80.275,50.319 80.271,50.319 80.268,50.318 C80.265,50.317 80.262,50.315 80.259,50.315 C80.16,50.29 80.061,50.286 79.961,50.272 C79.863,50.258 79.765,50.234 79.668,50.23 C79.566,50.225 79.468,50.24 79.367,50.245 C79.271,50.25 79.173,50.247 79.079,50.262 C78.992,50.275 78.911,50.305 78.826,50.326 C78.722,50.352 78.616,50.37 78.516,50.407 C78.45,50.431 78.391,50.468 78.327,50.496 C78.215,50.546 78.1,50.592 77.995,50.655 C77.946,50.684 77.905,50.723 77.858,50.755 C77.746,50.831 77.632,50.906 77.531,50.997 C77.49,51.034 77.458,51.079 77.419,51.118 C77.322,51.215 77.224,51.312 77.14,51.423 C77.095,51.483 77.062,51.553 77.021,51.616 C76.956,51.717 76.887,51.814 76.835,51.924 C76.785,52.028 76.753,52.143 76.714,52.255 C76.687,52.332 76.651,52.404 76.63,52.484 C76.629,52.486 76.63,52.489 76.629,52.491 C76.628,52.496 76.625,52.5 76.624,52.504 C75.599,56.638 72.849,60.149 69.082,62.138 L66.853,63.315 C65.388,64.088 64.827,65.903 65.601,67.368 C66.139,68.387 67.18,68.968 68.256,68.968 C68.728,68.968 69.208,68.856 69.654,68.62 L71.883,67.444 C76.259,65.134 79.63,61.345 81.482,56.82 L85.706,57.899 L83.971,66.02 L71.528,74.646 C70.166,75.59 69.827,77.459 70.772,78.82 C71.355,79.661 72.289,80.112 73.24,80.112 C73.829,80.112 74.425,79.938 74.946,79.577 L87.299,71.014 L100.162,73.765 L105.176,91.509 C105.549,92.83 106.752,93.694 108.061,93.694 C108.332,93.694 108.606,93.657 108.878,93.58 C110.47,93.127 111.398,91.469 110.947,89.875 Z" id="Path" fill="#FFFFFF"></path>
                    <path d="M10.864,33.722 C11.018,33.815 11.18,33.894 11.348,33.958 L15.358,35.483 C17.515,36.303 19.712,37.209 22.075,38.25 C24.136,39.159 26.304,40.163 28.703,41.321 C31.608,42.723 34.657,43.909 37.763,44.845 C42.195,46.18 46.797,47.027 51.442,47.361 C52.95,47.469 54.484,47.525 56.002,47.525 C62.202,47.525 68.338,46.622 74.241,44.842 C77.344,43.906 80.391,42.72 83.299,41.317 C85.7,40.157 87.868,39.152 89.927,38.244 C92.286,37.203 94.483,36.297 96.644,35.475 L100.652,33.95 C100.821,33.886 100.983,33.806 101.137,33.714 C102.873,32.665 103.838,30.779 103.657,28.789 C103.474,26.823 102.197,25.142 100.322,24.403 C100.169,24.342 100.01,24.295 99.848,24.26 L82.343,20.518 L82.343,10.26 C82.341,6.407 79.512,3.046 75.612,2.256 C75.603,2.254 75.593,2.252 75.585,2.251 C62.589,-0.341 49.41,-0.339 36.413,2.254 C36.404,2.255 36.395,2.257 36.386,2.259 C32.484,3.05 29.655,6.412 29.656,10.265 L29.657,20.518 L12.152,24.268 C11.991,24.303 11.833,24.351 11.679,24.411 C9.804,25.151 8.527,26.832 8.346,28.798 C8.161,30.786 9.127,32.673 10.864,33.722 Z M37.583,8.139 C37.59,8.138 37.598,8.136 37.606,8.135 C49.811,5.702 62.186,5.701 74.388,8.131 C74.396,8.133 74.404,8.134 74.412,8.136 C75.529,8.359 76.342,9.253 76.342,10.261 L76.342,11.026 C73.38,11.646 70.378,12.138 67.384,12.484 C59.847,13.353 52.142,13.353 44.611,12.484 C42.972,12.293 41.477,13.474 41.287,15.12 C41.098,16.766 42.278,18.254 43.924,18.444 C47.918,18.904 51.98,19.138 55.998,19.138 C60.015,19.138 64.077,18.905 68.072,18.444 C70.828,18.126 73.592,17.687 76.343,17.145 L76.343,22.916 C76.343,22.919 76.343,22.922 76.343,22.926 L76.343,25.01 C62.987,28.833 49.01,28.833 35.656,25.01 L35.655,10.265 C35.654,9.256 36.465,8.362 37.583,8.139 Z M29.656,26.655 L29.656,27.237 C29.656,28.544 30.502,29.7 31.747,30.096 C39.68,32.618 47.839,33.879 56,33.879 C64.158,33.879 72.318,32.618 80.249,30.097 C80.398,30.05 80.545,29.99 80.685,29.92 C81.702,29.412 82.343,28.373 82.343,27.237 L82.343,26.653 L95.541,29.475 L94.509,29.868 C92.251,30.727 89.959,31.672 87.505,32.755 C85.383,33.691 83.153,34.725 80.69,35.914 C78.065,37.182 75.312,38.253 72.509,39.099 C65.862,41.103 58.817,41.878 51.873,41.378 C47.668,41.076 43.504,40.31 39.496,39.102 C36.689,38.256 33.936,37.185 31.313,35.919 C28.851,34.731 26.621,33.697 24.497,32.761 C22.039,31.677 19.747,30.734 17.493,29.876 L16.459,29.482 L29.656,26.655 Z" id="Shape" fill="#C59C31" fill-rule="nonzero"></path>
                </g>
            </g>
        </g>
    </g>
</svg>