<?xml version="1.0" encoding="UTF-8"?>
<svg width="122px" height="114px" viewBox="0 0 122 114" version="1.1" xmlns="http://www.w3.org/2000/svg" xmlns:xlink="http://www.w3.org/1999/xlink">
    <!-- Generator: Sketch 52.2 (67145) - http://www.bohemiancoding.com/sketch -->
    <title>metamask.0457ad632e4e</title>
    <desc>Created with Sketch.</desc>
    <g id="Page-1" stroke="none" stroke-width="1" fill="none" fill-rule="evenodd">
        <g id="Desktop" transform="translate(-144.000000, -987.000000)">
            <g id="metamask.0457ad632e4e" transform="translate(145.000000, 988.000000)">
                <polygon id="Path" stroke="#161616" fill="#161616" points="116.233817 49.5093063 113.879953 47.8037225 117.646136 44.3451777 114.774421 42.071066 118.540604 39.1810491 116.045508 37.285956 120 17.9560068 114.068262 0 75.8885838 14.3553299 44.1114162 14.3553299 5.93173794 6.73272305e-15 0 17.9560068 4.00156924 37.285956 1.45939584 39.1810491 5.22557866 42.071066 2.35386426 44.3451777 6.12004708 47.8037225 3.76618282 49.5093063 9.18007062 55.9052453 0.988622989 81.5837563 8.56806591 107.783418 35.2608866 100.392555 40.439388 104.656514 50.9846999 112 69.0153001 112 79.560612 104.656514 84.7391134 100.392555 111.431934 107.783418 119.058454 81.5837563 110.819929 55.9052453"></polygon>
                <path d="M35.2519936,100.665461 L8.57496013,108 L1,82 L35.2519936,100.665461 Z M119,82 L111.37799,108 L84.7009569,100.665461 L119,82 Z" id="Shape" stroke="#E4761B" fill="#E4761B" fill-rule="nonzero" stroke-linecap="round" stroke-linejoin="round"></path>
                <path d="M112,56 L87.2839947,48.6643836 L95.9322336,46.3630137 L112,56 Z M9.96968346,56 L26.084708,46.3630137 L34.6856888,48.6643836 L9.96968346,56 Z M6.89790459,47.8013699 L6,42 L26.084708,46.3630137 L6.89790459,47.8013699 Z" id="Shape" stroke="#763D16" fill="#763D16" fill-rule="nonzero" stroke-linecap="round" stroke-linejoin="round"></path>
                <polygon id="Path" stroke="#763D16" fill="#763D16" stroke-linecap="round" stroke-linejoin="round" points="114.103774 48 95 46.5123967 115 42"></polygon>
                <path d="M114.815966,48.1679389 L111.729832,56 L95.5869748,46.7938931 L114.815966,48.1679389 Z M6.13655462,48.1679389 L25.4130252,46.7938931 L9.22268908,56 L6.13655462,48.1679389 Z M95.5869748,46.7938931 L117,38 L115.718067,42.6259542 L95.5869748,46.7938931 Z M25.4130252,46.7938931 L5.23445378,42.6259542 L4,38 L25.4130252,46.7938931 Z" id="Shape" stroke="#763D16" fill="#763D16" fill-rule="nonzero" stroke-linecap="round" stroke-linejoin="round"></path>
                <polygon id="Path" stroke="#F6851B" fill="#F6851B" stroke-linecap="round" stroke-linejoin="round" points="44 14 76 14 68.8414815 33"></polygon>
                <polygon id="Path" stroke="#F6851B" fill="#F6851B" stroke-linecap="round" stroke-linejoin="round" points="69 33 51.2041985 33 44 14"></polygon>
                <path d="M117,37.5106383 L95.7242094,46.7021277 L95.3468118,22 L117,37.5106383 Z M34.5857957,49 L26,46.7021277 L26.3302229,22 L34.5857957,49 Z" id="Shape" stroke="#763D16" fill="#763D16" fill-rule="nonzero" stroke-linecap="round" stroke-linejoin="round"></path>
                <path d="M25.6060135,22 L25.2757906,46.7021277 L4,37.5106383 L25.6060135,22 Z M94.6226024,22 L95,46.7021277 L86.3670295,49 L94.6226024,22 Z" id="Shape" stroke="#763D16" fill="#763D16" fill-rule="nonzero" stroke-linecap="round" stroke-linejoin="round"></path>
                <polygon id="Path" stroke="#E4761B" fill="#E4761B" stroke-linecap="round" stroke-linejoin="round" points="52 33 7 0 44.9365904 14.0042017"></polygon>
                <polygon id="Path" stroke="#E2761B" fill="#E2761B" stroke-linecap="round" stroke-linejoin="round" points="114 0 69 33 76.0634096 14.0042017"></polygon>
                <path d="M84.7009569,100 L97.169059,82 L119,82 L84.7009569,100 Z M1,82 L22.830941,82 L35.2519936,100 L1,82 Z" id="Shape" stroke="#E4761B" fill="#E4761B" fill-rule="nonzero" stroke-linecap="round" stroke-linejoin="round"></path>
                <path d="M93.5933014,60.1254613 L119,82 L97.169059,82 L93.5933014,60.1254613 Z M26.3596491,60.1254613 L1,82 L9.18660287,56 L26.3596491,60.1254613 Z M22.830941,82 L1,82 L26.3596491,60.1254613 L22.830941,82 Z" id="Shape" stroke="#F6851B" fill="#F6851B" fill-rule="nonzero" stroke-linecap="round" stroke-linejoin="round"></path>
                <polygon id="Path" stroke="#F6851B" fill="#F6851B" stroke-linecap="round" stroke-linejoin="round" points="94 60.1254613 111.574074 56 120 82"></polygon>
                <path d="M25.3515721,22 L51.1661903,33.902371 L33.6406697,48.7447699 L25.3515721,22 Z M86.3593303,48.7447699 L68.8338097,33.902371 L94.6484279,22 L86.3593303,48.7447699 Z M111.131891,56 L114.210698,47.8912134 L116.579012,49.5983264 L111.131891,56 Z M8.86810943,56 L3.42098816,49.5983264 L5.78930176,47.8912134 L8.86810943,56 Z M114.210698,47.8912134 L115.110657,42.153417 L118,44.4295676 L114.210698,47.8912134 Z M5.78930176,47.8912134 L2,44.4295676 L4.88934259,42.153417 L5.78930176,47.8912134 Z" id="Shape" stroke="#763D16" fill="#763D16" fill-rule="nonzero" stroke-linecap="round" stroke-linejoin="round"></path>
                <path d="M1,38.980198 L3.56212304,37 L4.79573784,42 L1,38.980198 Z M119,38.980198 L115.204262,42 L116.485324,37 L119,38.980198 Z" id="Shape" stroke="#763D16" fill="#763D16" fill-rule="nonzero" stroke-linecap="round" stroke-linejoin="round"></path>
                <path d="M9,55.6820084 L33.7086614,48 L26.2440945,60 L9,55.6820084 Z M111,55.6820084 L93.7559055,60 L86.2913386,48 L111,55.6820084 Z" id="Shape" stroke="#F6851B" fill="#F6851B" fill-rule="nonzero" stroke-linecap="round" stroke-linejoin="round"></path>
                <path d="M4.00156924,38 L0,19 L25.5629659,22.9117647 L4.00156924,38 Z M94.4370341,22.9117647 L120,19 L116.045508,38 L94.4370341,22.9117647 Z" id="Shape" stroke="#763D16" fill="#763D16" fill-rule="nonzero" stroke-linecap="round" stroke-linejoin="round"></path>
                <path d="M34,48.1889081 L51.4665618,33 L53.0715972,61 L34,48.1889081 Z M86.5413061,48.1889081 L94,59.7868284 L67.4697089,61 L86.5413061,48.1889081 Z M67.4697089,61 L69.0747443,33 L86.5413061,48.1889081 L67.4697089,61 Z" id="Shape" stroke="#E4761B" fill="#E4761B" fill-rule="nonzero" stroke-linecap="round" stroke-linejoin="round"></path>
                <polygon id="Path" stroke="#E4761B" fill="#E4761B" stroke-linecap="round" stroke-linejoin="round" points="54 61 27 59.7689394 34.5907473 48"></polygon>
                <path d="M114.071812,7.10542736e-15 L120,17.5168067 L94.4523318,21.3991597 L114.071812,7.10542736e-15 Z M6,7.10542736e-15 L51.2612464,33 L25.61948,21.3991597 L6,7.10542736e-15 Z M94.4523318,21.3991597 L68.8105654,33 L114.071812,0 L94.4523318,21.3991597 Z" id="Shape" stroke="#763D16" fill="#763D16" fill-rule="nonzero" stroke-linecap="round" stroke-linejoin="round"></path>
                <polygon id="Path" stroke="#763D16" fill="#763D16" stroke-linecap="round" stroke-linejoin="round" points="26 22 0 18.0086393 6.03314917 0"></polygon>
                <path d="M35.364557,100 L23,82 L37.5658228,82.1813602 L35.364557,100 Z M84.5886076,100 L82.3873418,82.1813602 L97,82 L84.5886076,100 Z" id="Shape" stroke="#CD6116" fill="#CD6116" fill-rule="nonzero" stroke-linecap="round" stroke-linejoin="round"></path>
                <polygon id="Path" stroke="#F6851B" fill="#F6851B" stroke-linecap="round" stroke-linejoin="round" points="68 61 53.6047198 61 52 33"></polygon>
                <polygon id="Path" stroke="#F6851B" fill="#F6851B" stroke-linecap="round" stroke-linejoin="round" points="51 33 69 33 67.3592493 61"></polygon>
                <path d="M40.2331113,104.228188 L35,100 L49.9857279,107 L40.2331113,104.228188 Z M70.0142721,107 L85,100 L79.7668887,104.228188 L70.0142721,107 Z" id="Shape" stroke="#C0AD9E" fill="#C0AD9E" fill-rule="nonzero" stroke-linecap="round" stroke-linejoin="round"></path>
                <path d="M49.8905804,102.630872 L49.9857279,107 L35,100 L49.8905804,102.630872 Z M70.1569933,102.630872 L85,100 L70.0142721,107 L70.1569933,102.630872 Z" id="Shape" stroke="#D7C1B3" fill="#D7C1B3" fill-rule="nonzero" stroke-linecap="round" stroke-linejoin="round"></path>
                <path d="M26.5126582,60 L37.5658228,82 L23,81.8086957 L26.5126582,60 Z M97,81.8086957 L82.3873418,82 L93.4405063,60 L97,81.8086957 Z" id="Shape" stroke="#F6851B" fill="#F6851B" fill-rule="nonzero" stroke-linecap="round" stroke-linejoin="round"></path>
                <path d="M26,60 L36.8495451,71.0478261 L37.2302309,82 L26,60 Z M94,60 L82.7697691,82 L83.1980406,71.0478261 L94,60 Z" id="Shape" stroke="#E4751F" fill="#E4751F" fill-rule="nonzero" stroke-linecap="round" stroke-linejoin="round"></path>
                <path d="M35,100.466063 L51.1274976,93 L49.8905804,103 L35,100.466063 Z M85,100.466063 L70.1569933,103 L68.8725024,93 L85,100.466063 Z" id="Shape" stroke="#D7C1B3" fill="#D7C1B3" fill-rule="nonzero" stroke-linecap="round" stroke-linejoin="round"></path>
                <path d="M51.1274976,92.4427481 L35,100 L37.2359657,82 L51.1274976,92.4427481 Z M68.8725024,92.4427481 L82.7640343,82 L85,100 L68.8725024,92.4427481 Z" id="Shape" stroke="#E4761B" fill="#E4761B" fill-rule="nonzero" stroke-linecap="round" stroke-linejoin="round"></path>
                <path d="M67.256823,61.1904762 L94,60 L83.1980406,71 L67.256823,61.1904762 Z M36.8495451,71 L26,60 L52.743177,61.1904762 L36.8495451,71 Z" id="Shape" stroke="#CD6116" fill="#CD6116" fill-rule="nonzero" stroke-linecap="round" stroke-linejoin="round"></path>
                <path d="M52.7741273,61 L46.3983573,66.5825243 L37,71 L52.7741273,61 Z M83,71 L73.5544148,66.5825243 L67.1786448,61 L83,71 Z" id="Shape" stroke="#CD6116" fill="#CD6116" fill-rule="nonzero" stroke-linecap="round" stroke-linejoin="round"></path>
                <path d="M82.5749487,82 L69.6344969,74.9868996 L83,71 L82.5749487,82 Z M37.3778234,82 L37,71 L50.3182752,74.9868996 L37.3778234,82 Z" id="Shape" stroke="#F6851B" fill="#F6851B" fill-rule="nonzero" stroke-linecap="round" stroke-linejoin="round"></path>
                <path d="M50.3182752,74 L37,70.183908 L46.3983573,66 L50.3182752,74 Z M69.6344969,74 L73.5544148,66 L83,70.183908 L69.6344969,74 Z" id="Shape" stroke="#233447" fill="#233447" fill-rule="nonzero" stroke-linecap="round" stroke-linejoin="round"></path>
                <path d="M74,66.1730104 L69.9582609,74 L67.426087,61 L74,66.1730104 Z M46,66.1730104 L52.573913,61 L50.0417391,74 L46,66.1730104 Z" id="Shape" stroke="#CD6116" fill="#CD6116" fill-rule="nonzero" stroke-linecap="round" stroke-linejoin="round"></path>
                <path d="M80,104 L69.4873646,112 L70.3790614,107.045161 L80,104 Z M50.6209386,107.045161 L51.5126354,112 L41,104 L50.6209386,107.045161 Z" id="Shape" stroke="#C0AD9E" fill="#C0AD9E" fill-rule="nonzero" stroke-linecap="round" stroke-linejoin="round"></path>
                <polygon id="Path" stroke="#E2761B" fill="#E2761B" stroke-linecap="round" stroke-linejoin="round" points="70 74 67 69.1868512 67.6 61"></polygon>
                <polygon id="Path" stroke="#E4751F" fill="#E4751F" stroke-linecap="round" stroke-linejoin="round" points="51 74 53.4 61 54 69.1868512"></polygon>
                <polygon id="Path" stroke="#F6851B" fill="#F6851B" stroke-linecap="round" stroke-linejoin="round" points="67 61 66.3767123 69 53 69"></polygon>
                <path d="M53.9404389,69.5098039 L53.3291536,61 L67.6708464,61 L53.9404389,69.5098039 Z M70.1159875,74.5128205 L83,81.3393665 L69.2695925,92 L70.1159875,74.5128205 Z M51.7304075,92 L38,81.3393665 L50.8840125,74.5128205 L51.7304075,92 Z" id="Shape" stroke="#F6851B" fill="#F6851B" fill-rule="nonzero" stroke-linecap="round" stroke-linejoin="round"></path>
                <path d="M51,74 L54.0660147,90.4117647 L51.8361858,92 L51,74 Z M69.1638142,92 L66.9339853,90.4117647 L70,74 L69.1638142,92 Z" id="Shape" stroke="#F6851B" fill="#F6851B" fill-rule="nonzero" stroke-linecap="round" stroke-linejoin="round"></path>
                <path d="M66.9804401,70 L70,75.015625 L66.9339853,91 L66.9804401,70 Z M54.0195599,70 L54.0660147,91 L51,75.015625 L54.0195599,70 Z" id="Shape" stroke="#E4751F" fill="#E4751F" fill-rule="nonzero" stroke-linecap="round" stroke-linejoin="round"></path>
                <path d="M54,70 L67,70 L66.953405,91 L54,70 Z M66.953405,91 L54.046595,91 L54,70 L66.953405,91 Z" id="Shape" stroke="#F6851B" fill="#F6851B" fill-rule="nonzero" stroke-linecap="round" stroke-linejoin="round"></path>
                <path d="M70,103 L69.8591549,107.428571 L68.9671362,112 L70,103 Z M50.9859155,112 L50.0938967,107.428571 L50,103 L50.9859155,112 Z" id="Shape" stroke="#C0AD9E" fill="#C0AD9E" fill-rule="nonzero" stroke-linecap="round" stroke-linejoin="round"></path>
                <path d="M50,103.042654 L51.1267606,102 L50.9859155,112 L50,103.042654 Z M68.9671362,112 L68.8262911,102 L70,103.042654 L68.9671362,112 Z" id="Shape" stroke="#C0AD9E" fill="#C0AD9E" fill-rule="nonzero" stroke-linecap="round" stroke-linejoin="round"></path>
                <path d="M51,112 L51.1409922,102 L68.8590078,102 L51,112 Z M68.8590078,102 L69,112 L51,112 L68.8590078,102 Z" id="Shape" stroke="#C0AD9E" fill="#C0AD9E" fill-rule="nonzero" stroke-linecap="round" stroke-linejoin="round"></path>
                <path d="M68.7323944,93 L70,103 L68.8262911,102.004525 L68.7323944,93 Z M51.1267606,102.004525 L50,103 L51.2206573,93 L51.1267606,102.004525 Z M51.2206573,93 L51.9248826,95.1266968 L51.1267606,102.004525 L51.2206573,93 Z" id="Shape" stroke="#161616" fill="#161616" fill-rule="nonzero" stroke-linecap="round" stroke-linejoin="round"></path>
                <path d="M69,102 L68.184,95.1256281 L68.904,93 L69,102 Z M53.16,93.5427136 L51.72,95.1256281 L51,93 L53.16,93.5427136 Z" id="Shape" stroke="#161616" fill="#161616" fill-rule="nonzero" stroke-linecap="round" stroke-linejoin="round"></path>
                <polygon id="Path" stroke="#161616" fill="#161616" stroke-linecap="round" stroke-linejoin="round" points="69 92 68 95 66 92.7659574"></polygon>
                <path d="M66.8284182,93 L66.6836461,90 L69,92.2 L66.8284182,93 Z M51,92.2 L53.3163539,90 L53.1715818,93 L51,92.2 Z" id="Shape" stroke="#161616" fill="#161616" fill-rule="nonzero" stroke-linecap="round" stroke-linejoin="round"></path>
                <polygon id="Path" stroke="#161616" fill="#161616" stroke-linecap="round" stroke-linejoin="round" points="66.8621908 90 67 93 54 93"></polygon>
                <path d="M53.4166667,93.1336207 L53.5583333,91 L66.6388889,91 L53.4166667,93.1336207 Z M52,94.7931034 L68.1972222,94.7931034 L69,102 L52,94.7931034 Z" id="Shape" stroke="#161616" fill="#161616" fill-rule="nonzero" stroke-linecap="round" stroke-linejoin="round"></path>
                <path d="M69,102 L51,102 L51.8116711,94.684492 L69,102 Z M51.8116711,94.684492 L53.2440318,93 L66.7559682,93 L51.8116711,94.684492 Z" id="Shape" stroke="#161616" fill="#161616" fill-rule="nonzero" stroke-linecap="round" stroke-linejoin="round"></path>
                <polygon id="Path" stroke="#161616" fill="#161616" stroke-linecap="round" stroke-linejoin="round" points="66.6005831 93 68 95 52 95"></polygon>
            </g>
        </g>
    </g>
</svg>