<?xml version="1.0" encoding="UTF-8"?>
<svg width="142px" height="99px" viewBox="0 0 142 99" version="1.1" xmlns="http://www.w3.org/2000/svg" xmlns:xlink="http://www.w3.org/1999/xlink">
    <!-- Generator: Sketch 52.4 (67378) - http://www.bohemiancoding.com/sketch -->
    <title>Group 5</title>
    <desc>Created with Sketch.</desc>
    <g id="Page-1" stroke="none" stroke-width="1" fill="none" fill-rule="evenodd">
        <g id="Desktop" transform="translate(-417.000000, -988.000000)">
            <g id="Group-5" transform="translate(417.000000, 988.000000)">
                <path d="M48.6969072,63 C36.9195876,63 28.5195876,55.0112045 28,45.4593838 L34.1484536,43.6358543 C34.5814433,50.929972 40.643299,56.8347339 48.6969072,56.8347339 C57.2701031,56.8347339 63.2453608,50.8431373 63.2453608,43.0280112 C63.2453608,35.2128852 57.7896907,29.1344538 48.6969072,29.1344538 C47.2247423,29.1344538 45.6659794,29.394958 43.7608247,29.9159664 L40.2969072,25.6610644 L57.8762887,7.16526611 L29.8185567,7.16526611 L29.8185567,1 L66.0164948,1 L66.0164948,7.16526611 L50.5154639,23.4901961 C62.3793814,23.837535 70,31.6526611 70,43.0280112 C70,54.3165266 61.0804124,63 48.6969072,63 Z M75.1231102,62 L75.1231102,55.7478992 L95.0799136,37.859944 C101.041037,32.4761905 107.174946,27.4397759 107.174946,18.5826331 C107.174946,11.5490196 101.904968,6.16526611 94.1295896,6.16526611 C86.7861771,6.16526611 80.3066955,11.4621849 80.2203024,20.232493 L74,18.4089636 C74.4319654,7.03361345 83.762419,0 94.1295896,0 C105.706263,0 113.913607,7.90196078 113.913607,18.5826331 C113.913607,29.5238095 107.00216,35.6022409 99.7451404,42.0280112 L84.3671706,55.8347339 L114,55.8347339 L114,62 L75.1231102,62 Z" id="32" fill="#FFFFFF"></path>
                <g id="Group-4" transform="translate(0.000000, 83.000000)">
                    <path d="M61.4345,0.3 L61.4135,15 L58.4105,15 L58.4105,5.949 L54.5465,15 L52.4885,15 L48.6455,6.033 L48.6455,15 L45.6215,15 L45.6215,0.3 L48.9605,0.3 L53.5175,10.905 L58.0745,0.3 L61.4345,0.3 Z M64.3535,15 L64.3535,0.3 L67.3775,0.3 L67.3775,15 L64.3535,15 Z M70.2965,15 L70.2965,0.3 L73.4045,0.3 L79.7465,10.044 L79.7465,0.3 L82.7705,0.3 L82.7705,15 L79.6835,15 L73.3205,5.277 L73.3205,15 L70.2965,15 Z M85.6895,15 L85.6895,0.3 L88.7135,0.3 L88.7135,15 L85.6895,15 Z M107.4455,0.3 L107.4245,15 L104.4215,15 L104.4215,5.949 L100.5575,15 L98.4995,15 L94.6565,6.033 L94.6565,15 L91.6325,15 L91.6325,0.3 L94.9715,0.3 L99.5285,10.905 L104.0855,0.3 L107.4455,0.3 Z M116.3495,15.294 C113.2415,15.294 110.3645,13.635 110.3645,9.036 L110.3645,0.3 L113.3885,0.3 L113.3885,8.889 C113.3885,11.304 114.3125,12.48 116.3495,12.48 C118.4075,12.48 119.2685,11.199 119.2685,8.889 L119.2685,0.3 L122.2925,0.3 L122.2925,9.057 C122.2925,13.656 119.5625,15.294 116.3495,15.294 Z M141.0245,0.3 L141.0035,15 L138.0005,15 L138.0005,5.949 L134.1365,15 L132.0785,15 L128.2355,6.033 L128.2355,15 L125.2115,15 L125.2115,0.3 L128.5505,0.3 L133.1075,10.905 L137.6645,0.3 L141.0245,0.3 Z" id="500-ETH-MINIMUM" fill="#FFFFFF"></path>
                    <polygon id="Path" fill="#C59C31" fill-rule="nonzero" points="0.9545 15 0.9545 0.3 10.3625 0.3 10.3625 3.03 3.9785 3.03 3.9785 6.285 9.4595 6.285 9.4595 8.931 3.9785 8.931 3.9785 12.27 10.3625 12.27 10.3625 15"></polygon>
                    <polygon id="Path" fill="#C59C31" fill-rule="nonzero" points="15.7805 15 15.7805 3.114 11.6855 3.114 11.6855 0.3 22.8995 0.3 22.8995 3.114 18.8045 3.114 18.8045 15"></polygon>
                    <polygon id="Path" fill="#C59C31" fill-rule="nonzero" points="24.8315 15 24.8315 0.3 27.8555 0.3 27.8555 6.138 33.7985 6.138 33.7985 0.3 36.8225 0.3 36.8225 15 33.7985 15 33.7985 8.952 27.8555 8.952 27.8555 15"></polygon>
                </g>
            </g>
        </g>
    </g>
</svg>