<?xml version="1.0" encoding="UTF-8"?>
<svg width="501px" height="66px" viewBox="0 0 501 66" version="1.1" xmlns="http://www.w3.org/2000/svg" xmlns:xlink="http://www.w3.org/1999/xlink">
    <!-- Generator: Sketch 52.2 (67145) - http://www.bohemiancoding.com/sketch -->
    <title>Group 3</title>
    <desc>Created with Sketch.</desc>
    <g id="Page-1" stroke="none" stroke-width="1" fill="none" fill-rule="evenodd">
        <g id="Desktop" transform="translate(-262.000000, -74.000000)">
            <g id="Group-3" transform="translate(262.000000, 74.000000)">
                <path d="M150.9625,38.15 C149.462492,37.549997 148.125006,36.8000045 146.95,35.9 C145.774994,34.9999955 144.537507,34.050005 143.2375,33.05 C142.187495,32.1999957 141.237504,31.3250045 140.3875,30.425 C139.537496,29.5249955 138.812503,28.5250055 138.2125,27.425 C137.612497,26.3249945 137.150002,25.075007 136.825,23.675 C136.499998,22.274993 136.3375,20.675009 136.3375,18.875 C136.3375,16.3749875 136.774996,14.0875104 137.65,12.0125 C138.525004,9.93748963 139.724992,8.1500075 141.25,6.65 C142.775008,5.1499925 144.58749,3.98750413 146.6875,3.1625 C148.78751,2.33749588 151.037488,1.925 153.4375,1.925 C155.987513,1.925 158.424988,2.524994 160.75,3.725 C163.075012,4.925006 165.362489,6.824987 167.6125,9.425 C169.712511,11.825012 171.299995,14.224988 172.375,16.625 C173.450005,19.025012 173.9875,21.5999863 173.9875,24.35 L163.7875,24.35 L159.4375,20.45 C159.4375,19.1499935 159.325001,18.1500035 159.1,17.45 C158.874999,16.7499965 158.362504,16.4 157.5625,16.4 C155.212488,16.4 153.425006,16.9874941 152.2,18.1625 C150.974994,19.3375059 150.3625,20.9499898 150.3625,23 L150.3625,23.9375 C150.3625,24.2125014 150.4125,24.4749987 150.5125,24.725 C151.362504,24.9750013 152.112497,25.1749992 152.7625,25.325 C153.412503,25.4750007 154.012497,25.6249993 154.5625,25.775 C156.112508,26.175002 157.474994,26.5999977 158.65,27.05 C159.825006,27.5000022 160.937495,28.0374969 161.9875,28.6625 C163.037505,29.2875031 164.062495,30.0249958 165.0625,30.875 C166.062505,31.7250043 167.137494,32.7249943 168.2875,33.875 C170.187509,35.7750095 171.687495,37.8749885 172.7875,40.175 C173.887505,42.4750115 174.4375,45.0999853 174.4375,48.05 C174.4375,50.4000118 174.000004,52.6124896 173.125,54.6875 C172.249996,56.7625104 171.050008,58.5874921 169.525,60.1625 C167.999992,61.7375079 166.18751,62.9874954 164.0875,63.9125 C161.987489,64.8375046 159.737512,65.3 157.3375,65.3 C155.087489,65.3 152.900011,64.8250048 150.775,63.875 C148.649989,62.9249952 146.462511,61.4250103 144.2125,59.375 C141.512487,56.974988 139.462507,54.4625131 138.0625,51.8375 C136.662493,49.2124869 135.912501,46.300016 135.8125,43.1 L146.4625,43.1 L150.3625,47.375 C150.3625,48.9250078 150.549998,49.9124979 150.925,50.3375 C151.300002,50.7625021 152.062494,50.975 153.2125,50.975 C155.26251,50.975 156.949993,50.3000067 158.275,48.95 C159.600007,47.5999932 160.2625,45.9500097 160.2625,44 C160.2625,43.2999965 160.2125,42.6750028 160.1125,42.125 C160.012499,41.5749972 159.887501,41.0500025 159.7375,40.55 C158.387493,39.9999973 156.975007,39.6000013 155.5,39.35 C154.024993,39.0999987 152.512508,38.7000028 150.9625,38.15 Z M169.1125,44 C169.1125,40.8999845 168.612505,38.3000105 167.6125,36.2 C166.612495,34.0999895 165.037511,32.250008 162.8875,30.65 C161.937495,29.8999963 160.950005,29.3125021 159.925,28.8875 C158.899995,28.4624979 157.875005,28.1000015 156.85,27.8 C155.824995,27.4999985 154.787505,27.2375011 153.7375,27.0125 C152.687495,26.7874989 151.662505,26.5000017 150.6625,26.15 C148.71249,25.549997 147.300004,24.6750057 146.425,23.525 C145.549996,22.3749943 145.1125,20.8250098 145.1125,18.875 C145.1125,16.474988 145.824993,14.5875069 147.25,13.2125 C148.675007,11.8374931 150.737486,11.15 153.4375,11.15 C155.737511,11.15 157.537493,11.8624929 158.8375,13.2875 C160.137506,14.7125071 160.7875,16.624988 160.7875,19.025 L162.4375,19.025 C162.287499,16.2749862 161.425008,13.9750092 159.85,12.125 C158.274992,10.2749908 156.137514,9.35 153.4375,9.35 C151.887492,9.35 150.512506,9.61249738 149.3125,10.1375 C148.112494,10.6625026 147.087504,11.3499958 146.2375,12.2 C145.387496,13.0500043 144.737502,14.0624941 144.2875,15.2375 C143.837498,16.4125059 143.6125,17.6249938 143.6125,18.875 C143.6125,23.1750215 145.762478,26.0749925 150.0625,27.575 C151.062505,27.9250018 152.074995,28.199999 153.1,28.4 C154.125005,28.600001 155.124995,28.8374986 156.1,29.1125 C157.075005,29.3875014 158.049995,29.724998 159.025,30.125 C160.000005,30.525002 160.962495,31.0999963 161.9125,31.85 C163.812509,33.3000073 165.237495,35.0124901 166.1875,36.9875 C167.137505,38.9625099 167.6125,41.2999865 167.6125,44 C167.6125,45.9500097 167.250004,47.8124911 166.525,49.5875 C165.799996,51.3625089 164.800006,52.9124934 163.525,54.2375 C162.249994,55.5625066 160.725009,56.6124961 158.95,57.3875 C157.174991,58.1625039 155.26251,58.55 153.2125,58.55 C151.312491,58.55 149.487509,58.1875036 147.7375,57.4625 C145.987491,56.7374964 144.462507,55.7375064 143.1625,54.4625 C141.862494,53.1874936 140.812504,51.7000085 140.0125,50 C139.212496,48.2999915 138.8125,46.45001 138.8125,44.45 L137.2375,44.45 C137.3375,46.7000113 137.824996,48.7749905 138.7,50.675 C139.575004,52.5750095 140.737493,54.224993 142.1875,55.625 C143.637507,57.025007 145.312491,58.1124961 147.2125,58.8875 C149.112509,59.6625039 151.112489,60.05 153.2125,60.05 C155.462511,60.05 157.54999,59.6250043 159.475,58.775 C161.40001,57.9249957 163.074993,56.7625074 164.5,55.2875 C165.925007,53.8124926 167.049996,52.1125096 167.875,50.1875 C168.700004,48.2624904 169.1125,46.200011 169.1125,44 Z M168.7375,19.025 C168.7375,16.7749888 168.325004,14.6875096 167.5,12.7625 C166.674996,10.8374904 165.575007,9.175007 164.2,7.775 C162.824993,6.374993 161.212509,5.28750387 159.3625,4.5125 C157.512491,3.73749613 155.53751,3.35 153.4375,3.35 C151.237489,3.35 149.17501,3.72499625 147.25,4.475 C145.32499,5.22500375 143.650007,6.28749312 142.225,7.6625 C140.799993,9.03750687 139.687504,10.6749905 138.8875,12.575 C138.087496,14.4750095 137.6875,16.5749885 137.6875,18.875 C137.6875,20.8250098 137.899998,22.5499925 138.325,24.05 C138.750002,25.5500075 139.374996,26.8499945 140.2,27.95 C141.025004,29.0500055 142.024994,29.999996 143.2,30.8 C144.375006,31.600004 145.712492,32.299997 147.2125,32.9 C147.912504,33.2000015 148.724995,33.4374991 149.65,33.6125 C150.575005,33.7875009 151.549995,33.9874989 152.575,34.2125 C153.600005,34.4375011 154.612495,34.7124984 155.6125,35.0375 C156.612505,35.3625016 157.512496,35.7999973 158.3125,36.35 C159.562506,37.2500045 160.424998,38.299994 160.9,39.5 C161.375002,40.700006 161.6125,42.199991 161.6125,44 C161.6125,45.200006 161.400002,46.299995 160.975,47.3 C160.549998,48.300005 159.962504,49.1749962 159.2125,49.925 C158.462496,50.6750038 157.575005,51.2624979 156.55,51.6875 C155.524995,52.1125021 154.412506,52.325 153.2125,52.325 C150.662487,52.325 148.675007,51.6125071 147.25,50.1875 C145.824993,48.7624929 145.1125,46.850012 145.1125,44.45 L143.4625,44.45 C143.4625,45.7500065 143.749997,46.9874941 144.325,48.1625 C144.900003,49.3375059 145.649995,50.3499958 146.575,51.2 C147.500005,52.0500043 148.537494,52.7249975 149.6875,53.225 C150.837506,53.7250025 152.012494,53.975 153.2125,53.975 C154.712508,53.975 156.074994,53.7125026 157.3,53.1875 C158.525006,52.6624974 159.574996,51.9500045 160.45,51.05 C161.325004,50.1499955 161.999998,49.0875061 162.475,47.8625 C162.950002,46.6374939 163.1875,45.3500068 163.1875,44 C163.1875,41.99999 162.887503,40.2875071 162.2875,38.8625 C161.687497,37.4374929 160.712507,36.225005 159.3625,35.225 C158.512496,34.5749967 157.612505,34.0875016 156.6625,33.7625 C155.712495,33.4374984 154.737505,33.175001 153.7375,32.975 C152.737495,32.774999 151.750005,32.5875009 150.775,32.4125 C149.799995,32.2374991 148.837505,31.9750018 147.8875,31.625 C145.187486,30.5749947 143.062508,29.0250103 141.5125,26.975 C139.962492,24.9249898 139.1875,22.2250167 139.1875,18.875 C139.1875,16.87499 139.549996,15.0125086 140.275,13.2875 C141.000004,11.5624914 141.999994,10.0750063 143.275,8.825 C144.550006,7.57499375 146.049991,6.6000035 147.775,5.9 C149.500009,5.1999965 151.38749,4.85 153.4375,4.85 C155.33751,4.85 157.124992,5.22499625 158.8,5.975 C160.475008,6.72500375 161.924994,7.7499935 163.15,9.05 C164.375006,10.3500065 165.337496,11.8499915 166.0375,13.55 C166.737504,15.2500085 167.0875,17.0749902 167.0875,19.025 L168.7375,19.025 Z M165.6625,19.025 C165.6125,17.3249915 165.262503,15.7000077 164.6125,14.15 C163.962497,12.5999922 163.087506,11.2375059 161.9875,10.0625 C160.887495,8.88749413 159.612507,7.9500035 158.1625,7.25 C156.712493,6.5499965 155.137509,6.2 153.4375,6.2 C151.587491,6.2 149.875008,6.51249688 148.3,7.1375 C146.724992,7.76250312 145.362506,8.63749438 144.2125,9.7625 C143.062494,10.8875056 142.162503,12.2249922 141.5125,13.775 C140.862497,15.3250077 140.5375,17.0249908 140.5375,18.875 C140.5375,21.7750145 141.274993,24.1499908 142.75,26 C144.225007,27.8500092 146.162488,29.2499953 148.5625,30.2 C149.562505,30.600002 150.562495,30.899999 151.5625,31.1 C152.562505,31.300001 153.562495,31.5124989 154.5625,31.7375 C155.562505,31.9625011 156.524995,32.2499982 157.45,32.6 C158.375005,32.9500017 159.262496,33.4499967 160.1125,34.1 C163.112515,36.4500118 164.6125,39.7499787 164.6125,44 C164.6125,45.5500078 164.312503,47.024993 163.7125,48.425 C163.112497,49.825007 162.287505,51.0499947 161.2375,52.1 C160.187495,53.1500052 158.975007,53.9874969 157.6,54.6125 C156.224993,55.2375031 154.762508,55.55 153.2125,55.55 C151.612492,55.55 150.137507,55.2625029 148.7875,54.6875 C147.437493,54.1124971 146.250005,53.325005 145.225,52.325 C144.199995,51.324995 143.400003,50.1500068 142.825,48.8 C142.249997,47.4499933 141.9625,46.0000078 141.9625,44.45 L140.3875,44.45 C140.4375,46.2000087 140.824996,47.8374924 141.55,49.3625 C142.275004,50.8875076 143.224994,52.2249942 144.4,53.375 C145.575006,54.5250057 146.924992,55.4374966 148.45,56.1125 C149.975008,56.7875034 151.562492,57.125 153.2125,57.125 C155.012509,57.125 156.699992,56.7750035 158.275,56.075 C159.850008,55.3749965 161.237494,54.425006 162.4375,53.225 C163.637506,52.024994 164.587496,50.625008 165.2875,49.025 C165.987504,47.424992 166.3375,45.7500088 166.3375,44 C166.3375,41.4999875 165.900004,39.3375091 165.025,37.5125 C164.149996,35.6874909 162.837509,34.1250065 161.0875,32.825 C160.187496,32.1749968 159.262505,31.6625019 158.3125,31.2875 C157.362495,30.9124981 156.387505,30.5875014 155.3875,30.3125 C154.387495,30.0374986 153.387505,29.800001 152.3875,29.6 C151.387495,29.399999 150.362505,29.100002 149.3125,28.7 C147.062489,27.899996 145.300006,26.700008 144.025,25.1 C142.749994,23.499992 142.1125,21.4250128 142.1125,18.875 C142.1125,17.2249918 142.387497,15.7375066 142.9375,14.4125 C143.487503,13.0874934 144.262495,11.9500048 145.2625,11 C146.262505,10.0499952 147.449993,9.31250263 148.825,8.7875 C150.200007,8.26249737 151.712492,8 153.3625,8 C154.862507,8 156.262494,8.27499725 157.5625,8.825 C158.862506,9.37500275 159.999995,10.149995 160.975,11.15 C161.950005,12.150005 162.712497,13.3249933 163.2625,14.675 C163.812503,16.0250068 164.0875,17.4749922 164.0875,19.025 L165.6625,19.025 Z M177.3625,60.35 L177.3625,2.9 L194.1625,2.9 C197.012514,2.9 199.737487,3.58749313 202.3375,4.9625 C204.937513,6.33750688 207.26249,8.29998725 209.3125,10.85 C211.112509,13.1000112 212.537495,15.2874894 213.5875,17.4125 C214.637505,19.5375106 215.1625,21.7249888 215.1625,23.975 C215.1625,26.3250117 214.700005,28.5124899 213.775,30.5375 C212.849995,32.5625101 211.600008,34.3374924 210.025,35.8625 C208.449992,37.3875076 206.65001,38.5874956 204.625,39.4625 C202.59999,40.3375044 200.487511,40.775 198.2875,40.775 L191.8375,40.775 L191.8375,64.25 L181.7125,64.25 L177.3625,60.35 Z M191.8375,26.225 L194.1625,26.225 C196.16251,26.225 197.762494,25.6500058 198.9625,24.5 C200.162506,23.3499943 200.7625,21.8000098 200.7625,19.85 C200.7625,18.7999947 200.637501,18.1250015 200.3875,17.825 C200.137499,17.5249985 199.437506,17.375 198.2875,17.375 L191.8375,17.375 L191.8375,26.225 Z M183.4375,32.3 L194.1625,32.3 C195.812508,32.3 197.399992,31.9875031 198.925,31.3625 C200.450008,30.7374969 201.787494,29.8750055 202.9375,28.775 C204.087506,27.6749945 205.012496,26.3625076 205.7125,24.8375 C206.412504,23.3124924 206.7625,21.650009 206.7625,19.85 C206.7625,18.1499915 206.437503,16.5375076 205.7875,15.0125 C205.137497,13.4874924 204.250006,12.1750055 203.125,11.075 C201.999994,9.9749945 200.675008,9.10000325 199.15,8.45 C197.624992,7.79999675 195.962509,7.475 194.1625,7.475 L181.8625,7.475 L181.8625,59 L183.4375,59 L183.4375,32.3 Z M183.4375,30.8 L183.4375,8.975 L194.1625,8.975 C195.712508,8.975 197.174993,9.26249712 198.55,9.8375 C199.925007,10.4125029 201.099995,11.199995 202.075,12.2 C203.050005,13.200005 203.824997,14.3624934 204.4,15.6875 C204.975003,17.0125066 205.2625,18.3999927 205.2625,19.85 C205.2625,21.3500075 204.975003,22.7749932 204.4,24.125 C203.824997,25.4750068 203.037505,26.6374951 202.0375,27.6125 C201.037495,28.5875049 199.862507,29.3624971 198.5125,29.9375 C197.162493,30.5125029 195.712508,30.8 194.1625,30.8 L183.4375,30.8 Z M194.1625,29.375 C196.912514,29.375 199.187491,28.5375084 200.9875,26.8625 C202.787509,25.1874916 203.6875,22.850015 203.6875,19.85 C203.6875,18.5499935 203.450002,17.3250058 202.975,16.175 C202.499998,15.0249943 201.837504,14.0375041 200.9875,13.2125 C200.137496,12.3874959 199.125006,11.7375024 197.95,11.2625 C196.774994,10.7874976 195.512507,10.55 194.1625,10.55 L185.0875,10.55 L185.0875,29.375 L194.1625,29.375 Z M186.5125,35.45 L194.1625,35.45 C196.21251,35.45 198.174991,35.050004 200.05,34.25 C201.925009,33.449996 203.587493,32.3375071 205.0375,30.9125 C206.487507,29.4874929 207.649996,27.8375094 208.525,25.9625 C209.400004,24.0874906 209.8375,22.050011 209.8375,19.85 C209.8375,17.7499895 209.425004,15.7500095 208.6,13.85 C207.774996,11.9499905 206.662507,10.2875071 205.2625,8.8625 C203.862493,7.43749288 202.20001,6.31250413 200.275,5.4875 C198.34999,4.66249588 196.312511,4.25 194.1625,4.25 L178.7875,4.25 L178.7875,59 L180.3625,59 L180.3625,5.9 L194.1625,5.9 C196.11251,5.9 197.949991,6.27499625 199.675,7.025 C201.400009,7.77500375 202.899994,8.78749362 204.175,10.0625 C205.450006,11.3375064 206.462496,12.8249915 207.2125,14.525 C207.962504,16.2250085 208.3375,17.9999907 208.3375,19.85 C208.3375,21.7500095 207.937504,23.5624914 207.1375,25.2875 C206.337496,27.0125086 205.275007,28.5124936 203.95,29.7875 C202.624993,31.0625064 201.112508,32.0749962 199.4125,32.825 C197.712491,33.5750038 195.962509,33.95 194.1625,33.95 L185.0125,33.95 L185.0125,59 L186.5125,59 L186.5125,35.45 Z M186.5125,27.65 L186.5125,12.125 L194.1625,12.125 C196.562512,12.125 198.487493,12.8124931 199.9375,14.1875 C201.387507,15.5625069 202.1125,17.449988 202.1125,19.85 C202.1125,22.250012 201.387507,24.149993 199.9375,25.55 C198.487493,26.950007 196.562512,27.65 194.1625,27.65 L186.5125,27.65 Z M240.8875,41.9 L251.3875,41.9 L255.2875,46.25 L255.2875,48.8 C255.2875,51.200012 254.850004,53.4124899 253.975,55.4375 C253.099996,57.4625101 251.912508,59.2124926 250.4125,60.6875 C248.912492,62.1625074 247.13751,63.299996 245.0875,64.1 C243.03749,64.900004 240.862511,65.3 238.5625,65.3 C233.962477,65.3 229.487522,63.3500195 225.1375,59.45 C222.637488,57.249989 220.737506,54.9625119 219.4375,52.5875 C218.137494,50.2124881 217.4875,47.5750145 217.4875,44.675 L217.4875,18.725 C217.4875,16.2749878 217.924996,14.0125104 218.8,11.9375 C219.675004,9.86248962 220.887492,8.08750738 222.4375,6.6125 C223.987508,5.13749263 225.78749,3.98750413 227.8375,3.1625 C229.88751,2.33749588 232.087488,1.925 234.4375,1.925 C237.387515,1.925 240.099988,2.58749338 242.575,3.9125 C245.050012,5.23750662 247.437488,7.22498675 249.7375,9.875 C251.487509,11.9750105 252.849995,14.0624896 253.825,16.1375 C254.800005,18.2125104 255.2875,20.449988 255.2875,22.85 L255.2875,25.55 L245.1625,25.55 L240.8875,21.65 L240.8875,18.725 C240.8875,17.7749953 240.775001,17.1500015 240.55,16.85 C240.324999,16.5499985 239.662506,16.4 238.5625,16.4 C236.46249,16.4 234.837506,16.9624944 233.6875,18.0875 C232.537494,19.2125056 231.9625,20.7999897 231.9625,22.85 L231.9625,26.45 L241.2625,26.45 L245.1625,30.8 L245.1625,40.925 L231.9625,40.925 L231.9625,48.8 C231.9625,49.6500042 232.099999,50.1999988 232.375,50.45 C232.650001,50.7000012 233.337494,50.825 234.4375,50.825 C236.43751,50.825 238.012494,50.2750055 239.1625,49.175 C240.312506,48.0749945 240.8875,46.5750095 240.8875,44.675 L240.8875,41.9 Z M242.2375,44.675 C242.2375,47.075012 241.537507,48.9249935 240.1375,50.225 C238.737493,51.5250065 236.837512,52.175 234.4375,52.175 C232.037488,52.175 230.137507,51.5250065 228.7375,50.225 C227.337493,48.9249935 226.6375,47.075012 226.6375,44.675 L226.6375,35.675 L239.9125,35.675 L239.9125,34.1 L225.1375,34.1 L225.1375,44.675 C225.1375,46.075007 225.387497,47.3374944 225.8875,48.4625 C226.387502,49.5875056 227.074996,50.5374961 227.95,51.3125 C228.825004,52.0875039 229.824994,52.6874979 230.95,53.1125 C232.075006,53.5375021 233.237494,53.75 234.4375,53.75 C235.637506,53.75 236.799994,53.5375021 237.925,53.1125 C239.050006,52.6874979 240.049996,52.0875039 240.925,51.3125 C241.800004,50.5374961 242.487498,49.5875056 242.9875,48.4625 C243.487503,47.3374944 243.7375,46.075007 243.7375,44.675 L243.7375,43.25 L242.2375,43.25 L242.2375,44.675 Z M226.6375,18.725 C226.6375,16.324988 227.337493,14.4500068 228.7375,13.1 C230.137507,11.7499933 232.037488,11.075 234.4375,11.075 C236.837512,11.075 238.737493,11.7499933 240.1375,13.1 C241.537507,14.4500068 242.2375,16.324988 242.2375,18.725 L242.2375,20.3 L243.7375,20.3 L243.7375,18.725 C243.7375,17.324993 243.487503,16.0500057 242.9875,14.9 C242.487498,13.7499943 241.800004,12.7875039 240.925,12.0125 C240.049996,11.2374961 239.050006,10.6375021 237.925,10.2125 C236.799994,9.78749787 235.637506,9.575 234.4375,9.575 C233.237494,9.575 232.075006,9.78749787 230.95,10.2125 C229.824994,10.6375021 228.825004,11.2374961 227.95,12.0125 C227.074996,12.7875039 226.387502,13.7499943 225.8875,14.9 C225.387497,16.0500057 225.1375,17.324993 225.1375,18.725 L225.1375,29.45 L239.9125,29.45 L239.9125,27.8 L226.6375,27.8 L226.6375,18.725 Z M223.6375,18.725 C223.6375,17.124992 223.899997,15.6625066 224.425,14.3375 C224.950003,13.0124934 225.699995,11.8875046 226.675,10.9625 C227.650005,10.0374954 228.787493,9.31250263 230.0875,8.7875 C231.387506,8.26249737 232.837492,8 234.4375,8 C237.637516,8 240.24999,8.98749012 242.275,10.9625 C244.30001,12.9375099 245.3125,15.524984 245.3125,18.725 L245.3125,20.3 L246.8875,20.3 L246.8875,18.725 C246.8875,16.8749908 246.537504,15.2000075 245.8375,13.7 C245.137496,12.1999925 244.212506,10.9125054 243.0625,9.8375 C241.912494,8.76249462 240.587508,7.925003 239.0875,7.325 C237.587492,6.724997 236.037508,6.425 234.4375,6.425 C232.837492,6.425 231.287508,6.724997 229.7875,7.325 C228.287492,7.925003 226.962506,8.76249462 225.8125,9.8375 C224.662494,10.9125054 223.737504,12.1999925 223.0375,13.7 C222.337496,15.2000075 221.9875,16.8749908 221.9875,18.725 L221.9875,44.675 C221.9875,46.475009 222.337496,48.1249925 223.0375,49.625 C223.737504,51.1250075 224.662494,52.4124946 225.8125,53.4875 C226.962506,54.5625054 228.287492,55.399997 229.7875,56 C231.287508,56.600003 232.837492,56.9 234.4375,56.9 C236.037508,56.9 237.587492,56.600003 239.0875,56 C240.587508,55.399997 241.912494,54.5625054 243.0625,53.4875 C244.212506,52.4124946 245.137496,51.1250075 245.8375,49.625 C246.537504,48.1249925 246.8875,46.475009 246.8875,44.675 L246.8875,43.25 L245.3125,43.25 L245.3125,44.675 C245.3125,46.2250077 245.050003,47.6499935 244.525,48.95 C243.999997,50.2500065 243.250005,51.3749952 242.275,52.325 C241.299995,53.2750047 240.150007,54.0124974 238.825,54.5375 C237.499993,55.0625026 236.037508,55.325 234.4375,55.325 C232.837492,55.325 231.387506,55.0625026 230.0875,54.5375 C228.787493,54.0124974 227.650005,53.2750047 226.675,52.325 C225.699995,51.3749952 224.950003,50.2500065 224.425,48.95 C223.899997,47.6499935 223.6375,46.2250077 223.6375,44.675 L223.6375,32.525 L239.9125,32.525 L239.9125,31.025 L223.6375,31.025 L223.6375,18.725 Z M248.4625,44.675 C248.4625,46.7250102 248.062504,48.5999915 247.2625,50.3 C246.462496,52.0000085 245.412507,53.449994 244.1125,54.65 C242.812493,55.850006 241.325008,56.7749968 239.65,57.425 C237.974992,58.0750033 236.237509,58.4 234.4375,58.4 C232.637491,58.4 230.900008,58.0750033 229.225,57.425 C227.549992,56.7749968 226.062506,55.850006 224.7625,54.65 C223.462493,53.449994 222.412504,52.0000085 221.6125,50.3 C220.812496,48.5999915 220.4125,46.7250102 220.4125,44.675 L220.4125,18.725 C220.4125,16.6249895 220.812496,14.7250085 221.6125,13.025 C222.412504,11.3249915 223.462493,9.875006 224.7625,8.675 C226.062506,7.474994 227.549992,6.55000325 229.225,5.9 C230.900008,5.24999675 232.637491,4.925 234.4375,4.925 C236.237509,4.925 237.974992,5.24999675 239.65,5.9 C241.325008,6.55000325 242.812493,7.474994 244.1125,8.675 C245.412507,9.875006 246.462496,11.3249915 247.2625,13.025 C248.062504,14.7250085 248.4625,16.6249895 248.4625,18.725 L248.4625,20.3 L249.9625,20.3 L249.9625,18.725 C249.9625,16.4749888 249.562504,14.4000095 248.7625,12.5 C247.962496,10.5999905 246.862507,8.97500675 245.4625,7.625 C244.062493,6.27499325 242.412509,5.22500375 240.5125,4.475 C238.61249,3.72499625 236.587511,3.35 234.4375,3.35 C232.287489,3.35 230.262509,3.72499625 228.3625,4.475 C226.462491,5.22500375 224.812507,6.27499325 223.4125,7.625 C222.012493,8.97500675 220.912504,10.5999905 220.1125,12.5 C219.312496,14.4000095 218.9125,16.4749888 218.9125,18.725 L218.9125,44.675 C218.9125,46.9250112 219.312496,48.9874906 220.1125,50.8625 C220.912504,52.7375094 222.012493,54.3624931 223.4125,55.7375 C224.812507,57.1125069 226.462491,58.1749962 228.3625,58.925 C230.262509,59.6750038 232.287489,60.05 234.4375,60.05 C236.587511,60.05 238.61249,59.6750038 240.5125,58.925 C242.412509,58.1749962 244.062493,57.1125069 245.4625,55.7375 C246.862507,54.3624931 247.962496,52.7375094 248.7625,50.8625 C249.562504,48.9874906 249.9625,46.9250112 249.9625,44.675 L249.9625,43.25 L248.4625,43.25 L248.4625,44.675 Z M257.9875,60.35 L257.9875,18.725 C257.9875,16.324988 258.424996,14.1000102 259.3,12.05 C260.175004,9.99998975 261.374992,8.2250075 262.9,6.725 C264.425008,5.2249925 266.19999,4.05000425 268.225,3.2 C270.25001,2.34999575 272.437488,1.925 274.7875,1.925 C277.637514,1.925 280.312487,2.59999325 282.8125,3.95 C285.312513,5.30000675 287.762488,7.3249865 290.1625,10.025 C292.012509,12.1250105 293.412495,14.2249895 294.3625,16.325 C295.312505,18.4250105 295.7875,20.5999887 295.7875,22.85 L295.7875,64.25 L285.6625,64.25 L281.3125,60.35 L281.3125,40.85 L272.3875,40.85 L272.3875,64.25 L262.2625,64.25 L257.9875,60.35 Z M272.3875,26.375 L281.3125,26.375 L281.3125,18.575 C281.3125,17.574995 281.175001,16.9250015 280.9,16.625 C280.624999,16.3249985 279.962505,16.175 278.9125,16.175 C276.86249,16.175 275.262506,16.7874939 274.1125,18.0125 C272.962494,19.2375061 272.3875,20.7999905 272.3875,22.7 L272.3875,26.375 Z M284.1625,34.1 L265.5625,34.1 L265.5625,59 L267.0625,59 L267.0625,35.6 L282.6625,35.6 L282.6625,59 L284.1625,59 L284.1625,34.1 Z M290.5375,18.725 C290.5375,16.5749893 290.112504,14.5750092 289.2625,12.725 C288.412496,10.8749907 287.275007,9.250007 285.85,7.85 C284.424993,6.449993 282.762509,5.350004 280.8625,4.55 C278.962491,3.749996 276.937511,3.35 274.7875,3.35 C272.637489,3.35 270.625009,3.73749613 268.75,4.5125 C266.874991,5.28750387 265.237507,6.36249313 263.8375,7.7375 C262.437493,9.11250688 261.337504,10.7374906 260.5375,12.6125 C259.737496,14.4875094 259.3375,16.524989 259.3375,18.725 L259.3375,59 L260.8375,59 L260.8375,18.575 C260.8375,16.7249908 261.237496,14.9625084 262.0375,13.2875 C262.837504,11.6124916 263.887494,10.1375064 265.1875,8.8625 C266.487506,7.58749363 267.987492,6.57500375 269.6875,5.825 C271.387508,5.07499625 273.112491,4.7 274.8625,4.7 C276.712509,4.7 278.474992,5.08749613 280.15,5.8625 C281.825008,6.63750388 283.312493,7.66249363 284.6125,8.9375 C285.912507,10.2125064 286.949996,11.6874916 287.725,13.3625 C288.500004,15.0375084 288.8875,16.774991 288.8875,18.575 L288.8875,59 L290.5375,59 L290.5375,18.725 Z M284.1625,18.875 C284.1625,17.5249932 283.925002,16.2625059 283.45,15.0875 C282.974998,13.9124941 282.325004,12.9000042 281.5,12.05 C280.674996,11.1999958 279.687506,10.5250025 278.5375,10.025 C277.387494,9.5249975 276.137507,9.275 274.7875,9.275 C273.437493,9.275 272.200006,9.5249975 271.075,10.025 C269.949994,10.5250025 268.975004,11.1999958 268.15,12.05 C267.324996,12.9000042 266.687502,13.9124941 266.2375,15.0875 C265.787498,16.2625059 265.5625,17.5249932 265.5625,18.875 L265.5625,29.375 L284.1625,29.375 L284.1625,18.875 Z M267.0625,27.8 L267.0625,18.575 C267.0625,16.2749885 267.749993,14.4125071 269.125,12.9875 C270.500007,11.5624929 272.387488,10.85 274.7875,10.85 C277.137512,10.85 279.037493,11.5374931 280.4875,12.9125 C281.937507,14.2875069 282.6625,16.174988 282.6625,18.575 L282.6625,27.8 L267.0625,27.8 Z M287.3125,18.575 C287.3125,16.974992 286.987503,15.4250075 286.3375,13.925 C285.687497,12.4249925 284.800006,11.0875059 283.675,9.9125 C282.549994,8.73749413 281.225008,7.8000035 279.7,7.1 C278.174992,6.3999965 276.537509,6.05 274.7875,6.05 C273.137492,6.05 271.562508,6.37499675 270.0625,7.025 C268.562492,7.67500325 267.250006,8.58749413 266.125,9.7625 C264.999994,10.9375059 264.100003,12.2999923 263.425,13.85 C262.749997,15.4000078 262.4125,17.074991 262.4125,18.875 L262.4125,59 L263.9875,59 L263.9875,32.45 L285.8125,32.45 L285.8125,59 L287.3125,59 L287.3125,18.575 Z M263.9875,30.95 L263.9875,18.575 C263.9875,17.0749925 264.274997,15.6750065 264.85,14.375 C265.425003,13.0749935 266.199995,11.9375049 267.175,10.9625 C268.150005,9.98749512 269.299993,9.21250287 270.625,8.6375 C271.950007,8.06249713 273.337493,7.775 274.7875,7.775 C276.287508,7.775 277.699993,8.06249713 279.025,8.6375 C280.350007,9.21250287 281.524995,9.999995 282.55,11 C283.575005,12.000005 284.374997,13.1749932 284.95,14.525 C285.525003,15.8750068 285.8125,17.3249923 285.8125,18.875 L285.8125,30.95 L263.9875,30.95 Z M313.5625,26.45 L315.8875,26.45 C317.83751,26.45 319.399994,25.8875056 320.575,24.7625 C321.750006,23.6374944 322.3375,21.875012 322.3375,19.475 L322.3375,2.9 L332.8375,2.9 L336.7375,7.25 L336.7375,23.6 C336.7375,26.5500147 336.287505,29.0124901 335.3875,30.9875 C334.487496,32.9625099 333.312507,34.5749938 331.8625,35.825 C333.612509,37.5250085 334.924996,39.2999908 335.8,41.15 C336.675004,43.0000093 337.1125,45.2749865 337.1125,47.975 L337.1125,64.25 L326.9875,64.25 L322.6375,60.35 L322.6375,43.85 C322.6375,42.6999942 322.525001,41.9000022 322.3,41.45 C322.074999,40.9999978 321.312507,40.775 320.0125,40.775 L313.5625,40.775 L313.5625,64.25 L303.4375,64.25 L299.0875,60.35 L299.0875,2.9 L309.5875,2.9 L313.5625,7.25 L313.5625,26.45 Z M302.0125,59 L302.0125,4.25 L300.5125,4.25 L300.5125,59 L302.0125,59 Z M331.4125,4.25 L329.8375,4.25 L329.8375,19.475 C329.8375,22.3250142 329.375005,24.74999 328.45,26.75 C327.524995,28.75001 325.862512,30.3999935 323.4625,31.7 C325.862512,33.0000065 327.587495,34.64999 328.6375,36.65 C329.687505,38.65001 330.2125,41.049986 330.2125,43.85 L330.2125,59 L331.7875,59 L331.7875,43.85 C331.7875,40.649984 331.212506,38.1125094 330.0625,36.2375 C328.912494,34.3624906 327.487508,32.8500058 325.7875,31.7 C327.487508,30.5499942 328.849995,29.0250095 329.875,27.125 C330.900005,25.2249905 331.4125,22.675016 331.4125,19.475 L331.4125,4.25 Z M308.2375,59 L308.2375,35.525 L315.8875,35.525 C318.287512,35.525 320.249992,36.2124931 321.775,37.5875 C323.300008,38.9625069 324.0625,41.049986 324.0625,43.85 L324.0625,59 L325.5625,59 L325.5625,43.85 C325.5625,40.5499835 324.662509,38.100008 322.8625,36.5 C321.062491,34.899992 318.737514,34.1 315.8875,34.1 L306.6625,34.1 L306.6625,59 L308.2375,59 Z M325.1875,4.25 L323.6875,4.25 L323.6875,19.475 C323.6875,22.3750145 322.987507,24.4874934 321.5875,25.8125 C320.187493,27.1375066 318.287512,27.8 315.8875,27.8 L308.2375,27.8 L308.2375,4.25 L306.6625,4.25 L306.6625,29.375 L315.8875,29.375 C318.737514,29.375 320.999992,28.5500083 322.675,26.9 C324.350008,25.2499918 325.1875,22.7750165 325.1875,19.475 L325.1875,4.25 Z M328.7125,59 L328.7125,43.85 C328.7125,40.649984 327.937508,37.9875106 326.3875,35.8625 C324.837492,33.7374894 322.787513,32.3500033 320.2375,31.7 C322.787513,30.9999965 324.774993,29.5875106 326.2,27.4625 C327.625007,25.3374894 328.3375,22.675016 328.3375,19.475 L328.3375,4.25 L326.7625,4.25 L326.7625,19.475 C326.7625,21.075008 326.537502,22.574993 326.0875,23.975 C325.637498,25.375007 324.962504,26.5874949 324.0625,27.6125 C323.162495,28.6375051 322.025007,29.449997 320.65,30.05 C319.274993,30.650003 317.687509,30.95 315.8875,30.95 L305.1625,30.95 L305.1625,4.25 L303.5125,4.25 L303.5125,59 L305.1625,59 L305.1625,32.45 L315.8875,32.45 C317.687509,32.45 319.287493,32.7374971 320.6875,33.3125 C322.087507,33.8875029 323.262495,34.6874949 324.2125,35.7125 C325.162505,36.7375051 325.874998,37.949993 326.35,39.35 C326.825002,40.750007 327.0625,42.249992 327.0625,43.85 L327.0625,59 L328.7125,59 Z M363.8125,41.9 L374.3125,41.9 L378.2125,46.25 L378.2125,48.8 C378.2125,51.200012 377.775004,53.4124899 376.9,55.4375 C376.024996,57.4625101 374.837508,59.2124926 373.3375,60.6875 C371.837492,62.1625074 370.06251,63.299996 368.0125,64.1 C365.96249,64.900004 363.787511,65.3 361.4875,65.3 C356.887477,65.3 352.412522,63.3500195 348.0625,59.45 C345.562487,57.249989 343.662507,54.9625119 342.3625,52.5875 C341.062493,50.2124881 340.4125,47.5750145 340.4125,44.675 L340.4125,18.725 C340.4125,16.2749878 340.849996,14.0125104 341.725,11.9375 C342.600004,9.86248962 343.812492,8.08750738 345.3625,6.6125 C346.912508,5.13749263 348.71249,3.98750413 350.7625,3.1625 C352.81251,2.33749588 355.012488,1.925 357.3625,1.925 C360.312515,1.925 363.024988,2.58749338 365.5,3.9125 C367.975012,5.23750662 370.362488,7.22498675 372.6625,9.875 C374.412509,11.9750105 375.774995,14.0624896 376.75,16.1375 C377.725005,18.2125104 378.2125,20.449988 378.2125,22.85 L378.2125,25.55 L368.0875,25.55 L363.8125,21.65 L363.8125,18.725 C363.8125,17.7749953 363.700001,17.1500015 363.475,16.85 C363.249999,16.5499985 362.587506,16.4 361.4875,16.4 C359.38749,16.4 357.762506,16.9624944 356.6125,18.0875 C355.462494,19.2125056 354.8875,20.7999897 354.8875,22.85 L354.8875,26.45 L364.1875,26.45 L368.0875,30.8 L368.0875,40.925 L354.8875,40.925 L354.8875,48.8 C354.8875,49.6500042 355.024999,50.1999988 355.3,50.45 C355.575001,50.7000012 356.262495,50.825 357.3625,50.825 C359.36251,50.825 360.937494,50.2750055 362.0875,49.175 C363.237506,48.0749945 363.8125,46.5750095 363.8125,44.675 L363.8125,41.9 Z M365.1625,44.675 C365.1625,47.075012 364.462507,48.9249935 363.0625,50.225 C361.662493,51.5250065 359.762512,52.175 357.3625,52.175 C354.962488,52.175 353.062507,51.5250065 351.6625,50.225 C350.262493,48.9249935 349.5625,47.075012 349.5625,44.675 L349.5625,35.675 L362.8375,35.675 L362.8375,34.1 L348.0625,34.1 L348.0625,44.675 C348.0625,46.075007 348.312498,47.3374944 348.8125,48.4625 C349.312502,49.5875056 349.999996,50.5374961 350.875,51.3125 C351.750004,52.0875039 352.749994,52.6874979 353.875,53.1125 C355.000006,53.5375021 356.162494,53.75 357.3625,53.75 C358.562506,53.75 359.724994,53.5375021 360.85,53.1125 C361.975006,52.6874979 362.974996,52.0875039 363.85,51.3125 C364.725004,50.5374961 365.412497,49.5875056 365.9125,48.4625 C366.412502,47.3374944 366.6625,46.075007 366.6625,44.675 L366.6625,43.25 L365.1625,43.25 L365.1625,44.675 Z M349.5625,18.725 C349.5625,16.324988 350.262493,14.4500068 351.6625,13.1 C353.062507,11.7499933 354.962488,11.075 357.3625,11.075 C359.762512,11.075 361.662493,11.7499933 363.0625,13.1 C364.462507,14.4500068 365.1625,16.324988 365.1625,18.725 L365.1625,20.3 L366.6625,20.3 L366.6625,18.725 C366.6625,17.324993 366.412502,16.0500057 365.9125,14.9 C365.412497,13.7499943 364.725004,12.7875039 363.85,12.0125 C362.974996,11.2374961 361.975006,10.6375021 360.85,10.2125 C359.724994,9.78749787 358.562506,9.575 357.3625,9.575 C356.162494,9.575 355.000006,9.78749787 353.875,10.2125 C352.749994,10.6375021 351.750004,11.2374961 350.875,12.0125 C349.999996,12.7875039 349.312502,13.7499943 348.8125,14.9 C348.312498,16.0500057 348.0625,17.324993 348.0625,18.725 L348.0625,29.45 L362.8375,29.45 L362.8375,27.8 L349.5625,27.8 L349.5625,18.725 Z M346.5625,18.725 C346.5625,17.124992 346.824997,15.6625066 347.35,14.3375 C347.875003,13.0124934 348.624995,11.8875046 349.6,10.9625 C350.575005,10.0374954 351.712493,9.31250263 353.0125,8.7875 C354.312506,8.26249737 355.762492,8 357.3625,8 C360.562516,8 363.17499,8.98749012 365.2,10.9625 C367.22501,12.9375099 368.2375,15.524984 368.2375,18.725 L368.2375,20.3 L369.8125,20.3 L369.8125,18.725 C369.8125,16.8749908 369.462503,15.2000075 368.7625,13.7 C368.062496,12.1999925 367.137506,10.9125054 365.9875,9.8375 C364.837494,8.76249462 363.512507,7.925003 362.0125,7.325 C360.512493,6.724997 358.962508,6.425 357.3625,6.425 C355.762492,6.425 354.212508,6.724997 352.7125,7.325 C351.212493,7.925003 349.887506,8.76249462 348.7375,9.8375 C347.587494,10.9125054 346.662503,12.1999925 345.9625,13.7 C345.262496,15.2000075 344.9125,16.8749908 344.9125,18.725 L344.9125,44.675 C344.9125,46.475009 345.262496,48.1249925 345.9625,49.625 C346.662503,51.1250075 347.587494,52.4124946 348.7375,53.4875 C349.887506,54.5625054 351.212493,55.399997 352.7125,56 C354.212508,56.600003 355.762492,56.9 357.3625,56.9 C358.962508,56.9 360.512493,56.600003 362.0125,56 C363.512507,55.399997 364.837494,54.5625054 365.9875,53.4875 C367.137506,52.4124946 368.062496,51.1250075 368.7625,49.625 C369.462503,48.1249925 369.8125,46.475009 369.8125,44.675 L369.8125,43.25 L368.2375,43.25 L368.2375,44.675 C368.2375,46.2250077 367.975003,47.6499935 367.45,48.95 C366.924997,50.2500065 366.175005,51.3749952 365.2,52.325 C364.224995,53.2750047 363.075007,54.0124974 361.75,54.5375 C360.424993,55.0625026 358.962508,55.325 357.3625,55.325 C355.762492,55.325 354.312506,55.0625026 353.0125,54.5375 C351.712493,54.0124974 350.575005,53.2750047 349.6,52.325 C348.624995,51.3749952 347.875003,50.2500065 347.35,48.95 C346.824997,47.6499935 346.5625,46.2250077 346.5625,44.675 L346.5625,32.525 L362.8375,32.525 L362.8375,31.025 L346.5625,31.025 L346.5625,18.725 Z M371.3875,44.675 C371.3875,46.7250102 370.987504,48.5999915 370.1875,50.3 C369.387496,52.0000085 368.337507,53.449994 367.0375,54.65 C365.737494,55.850006 364.250008,56.7749968 362.575,57.425 C360.899992,58.0750033 359.162509,58.4 357.3625,58.4 C355.562491,58.4 353.825008,58.0750033 352.15,57.425 C350.474992,56.7749968 348.987506,55.850006 347.6875,54.65 C346.387494,53.449994 345.337504,52.0000085 344.5375,50.3 C343.737496,48.5999915 343.3375,46.7250102 343.3375,44.675 L343.3375,18.725 C343.3375,16.6249895 343.737496,14.7250085 344.5375,13.025 C345.337504,11.3249915 346.387494,9.875006 347.6875,8.675 C348.987506,7.474994 350.474992,6.55000325 352.15,5.9 C353.825008,5.24999675 355.562491,4.925 357.3625,4.925 C359.162509,4.925 360.899992,5.24999675 362.575,5.9 C364.250008,6.55000325 365.737494,7.474994 367.0375,8.675 C368.337507,9.875006 369.387496,11.3249915 370.1875,13.025 C370.987504,14.7250085 371.3875,16.6249895 371.3875,18.725 L371.3875,20.3 L372.8875,20.3 L372.8875,18.725 C372.8875,16.4749888 372.487504,14.4000095 371.6875,12.5 C370.887496,10.5999905 369.787507,8.97500675 368.3875,7.625 C366.987493,6.27499325 365.33751,5.22500375 363.4375,4.475 C361.53749,3.72499625 359.512511,3.35 357.3625,3.35 C355.212489,3.35 353.18751,3.72499625 351.2875,4.475 C349.387491,5.22500375 347.737507,6.27499325 346.3375,7.625 C344.937493,8.97500675 343.837504,10.5999905 343.0375,12.5 C342.237496,14.4000095 341.8375,16.4749888 341.8375,18.725 L341.8375,44.675 C341.8375,46.9250112 342.237496,48.9874906 343.0375,50.8625 C343.837504,52.7375094 344.937493,54.3624931 346.3375,55.7375 C347.737507,57.1125069 349.387491,58.1749962 351.2875,58.925 C353.18751,59.6750038 355.212489,60.05 357.3625,60.05 C359.512511,60.05 361.53749,59.6750038 363.4375,58.925 C365.33751,58.1749962 366.987493,57.1125069 368.3875,55.7375 C369.787507,54.3624931 370.887496,52.7375094 371.6875,50.8625 C372.487504,48.9874906 372.8875,46.9250112 372.8875,44.675 L372.8875,43.25 L371.3875,43.25 L371.3875,44.675 Z M380.9125,60.35 L380.9125,18.725 C380.9125,16.324988 381.349996,14.1000102 382.225,12.05 C383.100004,9.99998975 384.299992,8.2250075 385.825,6.725 C387.350008,5.2249925 389.12499,4.05000425 391.15,3.2 C393.17501,2.34999575 395.362488,1.925 397.7125,1.925 C400.562514,1.925 403.237487,2.59999325 405.7375,3.95 C408.237513,5.30000675 410.687488,7.3249865 413.0875,10.025 C414.937509,12.1250105 416.337495,14.2249895 417.2875,16.325 C418.237505,18.4250105 418.7125,20.5999887 418.7125,22.85 L418.7125,64.25 L408.5875,64.25 L404.2375,60.35 L404.2375,40.85 L395.3125,40.85 L395.3125,64.25 L385.1875,64.25 L380.9125,60.35 Z M395.3125,26.375 L404.2375,26.375 L404.2375,18.575 C404.2375,17.574995 404.100001,16.9250015 403.825,16.625 C403.549999,16.3249985 402.887505,16.175 401.8375,16.175 C399.78749,16.175 398.187506,16.7874939 397.0375,18.0125 C395.887494,19.2375061 395.3125,20.7999905 395.3125,22.7 L395.3125,26.375 Z M407.0875,34.1 L388.4875,34.1 L388.4875,59 L389.9875,59 L389.9875,35.6 L405.5875,35.6 L405.5875,59 L407.0875,59 L407.0875,34.1 Z M413.4625,18.725 C413.4625,16.5749893 413.037504,14.5750092 412.1875,12.725 C411.337496,10.8749907 410.200007,9.250007 408.775,7.85 C407.349993,6.449993 405.687509,5.350004 403.7875,4.55 C401.88749,3.749996 399.862511,3.35 397.7125,3.35 C395.562489,3.35 393.550009,3.73749613 391.675,4.5125 C389.799991,5.28750387 388.162507,6.36249313 386.7625,7.7375 C385.362493,9.11250688 384.262504,10.7374906 383.4625,12.6125 C382.662496,14.4875094 382.2625,16.524989 382.2625,18.725 L382.2625,59 L383.7625,59 L383.7625,18.575 C383.7625,16.7249908 384.162496,14.9625084 384.9625,13.2875 C385.762504,11.6124916 386.812494,10.1375064 388.1125,8.8625 C389.412507,7.58749363 390.912491,6.57500375 392.6125,5.825 C394.312508,5.07499625 396.037491,4.7 397.7875,4.7 C399.637509,4.7 401.399992,5.08749613 403.075,5.8625 C404.750008,6.63750388 406.237493,7.66249363 407.5375,8.9375 C408.837506,10.2125064 409.874996,11.6874916 410.65,13.3625 C411.425004,15.0375084 411.8125,16.774991 411.8125,18.575 L411.8125,59 L413.4625,59 L413.4625,18.725 Z M407.0875,18.875 C407.0875,17.5249932 406.850002,16.2625059 406.375,15.0875 C405.899998,13.9124941 405.250004,12.9000042 404.425,12.05 C403.599996,11.1999958 402.612506,10.5250025 401.4625,10.025 C400.312494,9.5249975 399.062507,9.275 397.7125,9.275 C396.362493,9.275 395.125006,9.5249975 394,10.025 C392.874994,10.5250025 391.900004,11.1999958 391.075,12.05 C390.249996,12.9000042 389.612502,13.9124941 389.1625,15.0875 C388.712498,16.2625059 388.4875,17.5249932 388.4875,18.875 L388.4875,29.375 L407.0875,29.375 L407.0875,18.875 Z M389.9875,27.8 L389.9875,18.575 C389.9875,16.2749885 390.674993,14.4125071 392.05,12.9875 C393.425007,11.5624929 395.312488,10.85 397.7125,10.85 C400.062512,10.85 401.962493,11.5374931 403.4125,12.9125 C404.862507,14.2875069 405.5875,16.174988 405.5875,18.575 L405.5875,27.8 L389.9875,27.8 Z M410.2375,18.575 C410.2375,16.974992 409.912503,15.4250075 409.2625,13.925 C408.612497,12.4249925 407.725006,11.0875059 406.6,9.9125 C405.474994,8.73749413 404.150008,7.8000035 402.625,7.1 C401.099992,6.3999965 399.462509,6.05 397.7125,6.05 C396.062492,6.05 394.487508,6.37499675 392.9875,7.025 C391.487493,7.67500325 390.175006,8.58749413 389.05,9.7625 C387.924994,10.9375059 387.025003,12.2999923 386.35,13.85 C385.674997,15.4000078 385.3375,17.074991 385.3375,18.875 L385.3375,59 L386.9125,59 L386.9125,32.45 L408.7375,32.45 L408.7375,59 L410.2375,59 L410.2375,18.575 Z M386.9125,30.95 L386.9125,18.575 C386.9125,17.0749925 387.199997,15.6750065 387.775,14.375 C388.350003,13.0749935 389.124995,11.9375049 390.1,10.9625 C391.075005,9.98749512 392.224993,9.21250287 393.55,8.6375 C394.875007,8.06249713 396.262493,7.775 397.7125,7.775 C399.212507,7.775 400.624993,8.06249713 401.95,8.6375 C403.275007,9.21250287 404.449995,9.999995 405.475,11 C406.500005,12.000005 407.299997,13.1749932 407.875,14.525 C408.450003,15.8750068 408.7375,17.3249923 408.7375,18.875 L408.7375,30.95 L386.9125,30.95 Z M436.4125,38.15 C434.912492,37.549997 433.575006,36.8000045 432.4,35.9 C431.224994,34.9999955 429.987506,34.050005 428.6875,33.05 C427.637495,32.1999957 426.687504,31.3250045 425.8375,30.425 C424.987496,29.5249955 424.262503,28.5250055 423.6625,27.425 C423.062497,26.3249945 422.600002,25.075007 422.275,23.675 C421.949998,22.274993 421.7875,20.675009 421.7875,18.875 C421.7875,16.3749875 422.224996,14.0875104 423.1,12.0125 C423.975004,9.93748963 425.174992,8.1500075 426.7,6.65 C428.225008,5.1499925 430.037489,3.98750413 432.1375,3.1625 C434.23751,2.33749588 436.487488,1.925 438.8875,1.925 C441.437513,1.925 443.874988,2.524994 446.2,3.725 C448.525012,4.925006 450.812489,6.824987 453.0625,9.425 C455.16251,11.825012 456.749995,14.224988 457.825,16.625 C458.900005,19.025012 459.4375,21.5999863 459.4375,24.35 L449.2375,24.35 L444.8875,20.45 C444.8875,19.1499935 444.775001,18.1500035 444.55,17.45 C444.324999,16.7499965 443.812504,16.4 443.0125,16.4 C440.662488,16.4 438.875006,16.9874941 437.65,18.1625 C436.424994,19.3375059 435.8125,20.9499898 435.8125,23 L435.8125,23.9375 C435.8125,24.2125014 435.862499,24.4749987 435.9625,24.725 C436.812504,24.9750013 437.562497,25.1749992 438.2125,25.325 C438.862503,25.4750007 439.462497,25.6249993 440.0125,25.775 C441.562508,26.175002 442.924994,26.5999977 444.1,27.05 C445.275006,27.5000022 446.387495,28.0374969 447.4375,28.6625 C448.487505,29.2875031 449.512495,30.0249958 450.5125,30.875 C451.512505,31.7250043 452.587494,32.7249943 453.7375,33.875 C455.637509,35.7750095 457.137494,37.8749885 458.2375,40.175 C459.337505,42.4750115 459.8875,45.0999853 459.8875,48.05 C459.8875,50.4000118 459.450004,52.6124896 458.575,54.6875 C457.699996,56.7625104 456.500008,58.5874921 454.975,60.1625 C453.449992,61.7375079 451.63751,62.9874954 449.5375,63.9125 C447.437489,64.8375046 445.187512,65.3 442.7875,65.3 C440.537489,65.3 438.350011,64.8250048 436.225,63.875 C434.099989,62.9249952 431.912511,61.4250103 429.6625,59.375 C426.962486,56.974988 424.912507,54.4625131 423.5125,51.8375 C422.112493,49.2124869 421.3625,46.300016 421.2625,43.1 L431.9125,43.1 L435.8125,47.375 C435.8125,48.9250078 435.999998,49.9124979 436.375,50.3375 C436.750002,50.7625021 437.512494,50.975 438.6625,50.975 C440.71251,50.975 442.399993,50.3000067 443.725,48.95 C445.050007,47.5999932 445.7125,45.9500097 445.7125,44 C445.7125,43.2999965 445.6625,42.6750028 445.5625,42.125 C445.462499,41.5749972 445.337501,41.0500025 445.1875,40.55 C443.837493,39.9999973 442.425007,39.6000013 440.95,39.35 C439.474993,39.0999987 437.962508,38.7000028 436.4125,38.15 Z M454.5625,44 C454.5625,40.8999845 454.062505,38.3000105 453.0625,36.2 C452.062495,34.0999895 450.487511,32.250008 448.3375,30.65 C447.387495,29.8999963 446.400005,29.3125021 445.375,28.8875 C444.349995,28.4624979 443.325005,28.1000015 442.3,27.8 C441.274995,27.4999985 440.237505,27.2375011 439.1875,27.0125 C438.137495,26.7874989 437.112505,26.5000017 436.1125,26.15 C434.16249,25.549997 432.750004,24.6750057 431.875,23.525 C430.999996,22.3749943 430.5625,20.8250098 430.5625,18.875 C430.5625,16.474988 431.274993,14.5875069 432.7,13.2125 C434.125007,11.8374931 436.187486,11.15 438.8875,11.15 C441.187512,11.15 442.987494,11.8624929 444.2875,13.2875 C445.587507,14.7125071 446.2375,16.624988 446.2375,19.025 L447.8875,19.025 C447.737499,16.2749862 446.875008,13.9750092 445.3,12.125 C443.724992,10.2749908 441.587514,9.35 438.8875,9.35 C437.337492,9.35 435.962506,9.61249738 434.7625,10.1375 C433.562494,10.6625026 432.537504,11.3499958 431.6875,12.2 C430.837496,13.0500043 430.187502,14.0624941 429.7375,15.2375 C429.287498,16.4125059 429.0625,17.6249938 429.0625,18.875 C429.0625,23.1750215 431.212478,26.0749925 435.5125,27.575 C436.512505,27.9250018 437.524995,28.199999 438.55,28.4 C439.575005,28.600001 440.574995,28.8374986 441.55,29.1125 C442.525005,29.3875014 443.499995,29.724998 444.475,30.125 C445.450005,30.525002 446.412495,31.0999963 447.3625,31.85 C449.262509,33.3000073 450.687495,35.0124901 451.6375,36.9875 C452.587505,38.9625099 453.0625,41.2999865 453.0625,44 C453.0625,45.9500097 452.700004,47.8124911 451.975,49.5875 C451.249996,51.3625089 450.250006,52.9124934 448.975,54.2375 C447.699994,55.5625066 446.175009,56.6124961 444.4,57.3875 C442.624991,58.1625039 440.71251,58.55 438.6625,58.55 C436.762491,58.55 434.937509,58.1875036 433.1875,57.4625 C431.437491,56.7374964 429.912507,55.7375064 428.6125,54.4625 C427.312493,53.1874936 426.262504,51.7000085 425.4625,50 C424.662496,48.2999915 424.2625,46.45001 424.2625,44.45 L422.6875,44.45 C422.7875,46.7000113 423.274996,48.7749905 424.15,50.675 C425.025004,52.5750095 426.187493,54.224993 427.6375,55.625 C429.087507,57.025007 430.762491,58.1124961 432.6625,58.8875 C434.56251,59.6625039 436.562489,60.05 438.6625,60.05 C440.912511,60.05 442.99999,59.6250043 444.925,58.775 C446.85001,57.9249957 448.524993,56.7625074 449.95,55.2875 C451.375007,53.8124926 452.499996,52.1125096 453.325,50.1875 C454.150004,48.2624904 454.5625,46.200011 454.5625,44 Z M454.1875,19.025 C454.1875,16.7749888 453.775004,14.6875096 452.95,12.7625 C452.124996,10.8374904 451.025007,9.175007 449.65,7.775 C448.274993,6.374993 446.662509,5.28750387 444.8125,4.5125 C442.962491,3.73749613 440.98751,3.35 438.8875,3.35 C436.687489,3.35 434.62501,3.72499625 432.7,4.475 C430.77499,5.22500375 429.100007,6.28749312 427.675,7.6625 C426.249993,9.03750687 425.137504,10.6749905 424.3375,12.575 C423.537496,14.4750095 423.1375,16.5749885 423.1375,18.875 C423.1375,20.8250098 423.349998,22.5499925 423.775,24.05 C424.200002,25.5500075 424.824996,26.8499945 425.65,27.95 C426.475004,29.0500055 427.474994,29.999996 428.65,30.8 C429.825006,31.600004 431.162492,32.299997 432.6625,32.9 C433.362503,33.2000015 434.174995,33.4374991 435.1,33.6125 C436.025005,33.7875009 436.999995,33.9874989 438.025,34.2125 C439.050005,34.4375011 440.062495,34.7124984 441.0625,35.0375 C442.062505,35.3625016 442.962496,35.7999973 443.7625,36.35 C445.012506,37.2500045 445.874998,38.299994 446.35,39.5 C446.825002,40.700006 447.0625,42.199991 447.0625,44 C447.0625,45.200006 446.850002,46.299995 446.425,47.3 C445.999998,48.300005 445.412504,49.1749962 444.6625,49.925 C443.912496,50.6750038 443.025005,51.2624979 442,51.6875 C440.974995,52.1125021 439.862506,52.325 438.6625,52.325 C436.112487,52.325 434.125007,51.6125071 432.7,50.1875 C431.274993,48.7624929 430.5625,46.850012 430.5625,44.45 L428.9125,44.45 C428.9125,45.7500065 429.199997,46.9874941 429.775,48.1625 C430.350003,49.3375059 431.099995,50.3499958 432.025,51.2 C432.950005,52.0500043 433.987494,52.7249975 435.1375,53.225 C436.287506,53.7250025 437.462494,53.975 438.6625,53.975 C440.162507,53.975 441.524994,53.7125026 442.75,53.1875 C443.975006,52.6624974 445.024996,51.9500045 445.9,51.05 C446.775004,50.1499955 447.449998,49.0875061 447.925,47.8625 C448.400002,46.6374939 448.6375,45.3500068 448.6375,44 C448.6375,41.99999 448.337503,40.2875071 447.7375,38.8625 C447.137497,37.4374929 446.162507,36.225005 444.8125,35.225 C443.962496,34.5749967 443.062505,34.0875016 442.1125,33.7625 C441.162495,33.4374984 440.187505,33.175001 439.1875,32.975 C438.187495,32.774999 437.200005,32.5875009 436.225,32.4125 C435.249995,32.2374991 434.287505,31.9750018 433.3375,31.625 C430.637486,30.5749947 428.512508,29.0250103 426.9625,26.975 C425.412492,24.9249898 424.6375,22.2250167 424.6375,18.875 C424.6375,16.87499 424.999996,15.0125086 425.725,13.2875 C426.450004,11.5624914 427.449994,10.0750063 428.725,8.825 C430.000006,7.57499375 431.499991,6.6000035 433.225,5.9 C434.950009,5.1999965 436.83749,4.85 438.8875,4.85 C440.787509,4.85 442.574992,5.22499625 444.25,5.975 C445.925008,6.72500375 447.374994,7.7499935 448.6,9.05 C449.825006,10.3500065 450.787496,11.8499915 451.4875,13.55 C452.187503,15.2500085 452.5375,17.0749902 452.5375,19.025 L454.1875,19.025 Z M451.1125,19.025 C451.0625,17.3249915 450.712503,15.7000077 450.0625,14.15 C449.412497,12.5999922 448.537505,11.2375059 447.4375,10.0625 C446.337495,8.88749413 445.062507,7.9500035 443.6125,7.25 C442.162493,6.5499965 440.587509,6.2 438.8875,6.2 C437.037491,6.2 435.325008,6.51249688 433.75,7.1375 C432.174992,7.76250312 430.812506,8.63749438 429.6625,9.7625 C428.512494,10.8875056 427.612503,12.2249922 426.9625,13.775 C426.312497,15.3250077 425.9875,17.0249908 425.9875,18.875 C425.9875,21.7750145 426.724993,24.1499908 428.2,26 C429.675007,27.8500092 431.612488,29.2499953 434.0125,30.2 C435.012505,30.600002 436.012495,30.899999 437.0125,31.1 C438.012505,31.300001 439.012495,31.5124989 440.0125,31.7375 C441.012505,31.9625011 441.974995,32.2499982 442.9,32.6 C443.825005,32.9500017 444.712496,33.4499967 445.5625,34.1 C448.562515,36.4500118 450.0625,39.7499787 450.0625,44 C450.0625,45.5500078 449.762503,47.024993 449.1625,48.425 C448.562497,49.825007 447.737505,51.0499947 446.6875,52.1 C445.637495,53.1500052 444.425007,53.9874969 443.05,54.6125 C441.674993,55.2375031 440.212508,55.55 438.6625,55.55 C437.062492,55.55 435.587507,55.2625029 434.2375,54.6875 C432.887493,54.1124971 431.700005,53.325005 430.675,52.325 C429.649995,51.324995 428.850003,50.1500068 428.275,48.8 C427.699997,47.4499933 427.4125,46.0000078 427.4125,44.45 L425.8375,44.45 C425.8875,46.2000087 426.274996,47.8374924 427,49.3625 C427.725004,50.8875076 428.674994,52.2249942 429.85,53.375 C431.025006,54.5250057 432.374992,55.4374966 433.9,56.1125 C435.425008,56.7875034 437.012492,57.125 438.6625,57.125 C440.462509,57.125 442.149992,56.7750035 443.725,56.075 C445.300008,55.3749965 446.687494,54.425006 447.8875,53.225 C449.087506,52.024994 450.037496,50.625008 450.7375,49.025 C451.437504,47.424992 451.7875,45.7500088 451.7875,44 C451.7875,41.4999875 451.350004,39.3375091 450.475,37.5125 C449.599996,35.6874909 448.287509,34.1250065 446.5375,32.825 C445.637495,32.1749968 444.712505,31.6625019 443.7625,31.2875 C442.812495,30.9124981 441.837505,30.5875014 440.8375,30.3125 C439.837495,30.0374986 438.837505,29.800001 437.8375,29.6 C436.837495,29.399999 435.812505,29.100002 434.7625,28.7 C432.512489,27.899996 430.750006,26.700008 429.475,25.1 C428.199994,23.499992 427.5625,21.4250128 427.5625,18.875 C427.5625,17.2249918 427.837497,15.7375066 428.3875,14.4125 C428.937503,13.0874934 429.712495,11.9500048 430.7125,11 C431.712505,10.0499952 432.899993,9.31250263 434.275,8.7875 C435.650007,8.26249737 437.162492,8 438.8125,8 C440.312508,8 441.712493,8.27499725 443.0125,8.825 C444.312506,9.37500275 445.449995,10.149995 446.425,11.15 C447.400005,12.150005 448.162497,13.3249933 448.7125,14.675 C449.262503,16.0250068 449.5375,17.4749922 449.5375,19.025 L451.1125,19.025 Z M476.5375,25.925 C476.5375,26.925005 476.687498,27.5874984 476.9875,27.9125 C477.287501,28.2375016 477.937495,28.4 478.9375,28.4 C481.187511,28.4 482.837495,27.8125059 483.8875,26.6375 C484.937505,25.4624941 485.4625,23.975009 485.4625,22.175 L485.4625,2.9 L496.0375,2.9 L500.0125,7.25 L500.0125,26.3 C500.0125,28.1500093 499.725003,29.8999917 499.15,31.55 C498.574997,33.2000082 497.775005,34.6999933 496.75,36.05 C495.724995,37.4000068 494.512507,38.574995 493.1125,39.575 C491.712493,40.575005 490.212508,41.3499972 488.6125,41.9 L488.6125,64.25 L478.4875,64.25 L474.1375,60.35 L474.1375,40.025 C473.587497,39.7249985 473.000003,39.3250025 472.375,38.825 C471.749997,38.3249975 470.887505,37.6000048 469.7875,36.65 C467.237487,34.3999888 465.325006,32.1125116 464.05,29.7875 C462.774994,27.4624884 462.1375,24.9250138 462.1375,22.175 L462.1375,2.9 L472.6375,2.9 L476.5375,7.25 L476.5375,25.925 Z M483.2875,36.875 C484.887508,36.4249978 486.387493,35.7500045 487.7875,34.85 C489.187507,33.9499955 490.399995,32.8625064 491.425,31.5875 C492.450005,30.3124936 493.249997,28.875008 493.825,27.275 C494.400003,25.674992 494.6875,23.975009 494.6875,22.175 L494.6875,4.25 L493.1125,4.25 L493.1125,22.4 C493.1125,24.000008 492.812503,25.5374926 492.2125,27.0125 C491.612497,28.4875074 490.787505,29.824994 489.7375,31.025 C488.687495,32.225006 487.475007,33.224996 486.1,34.025 C484.724993,34.825004 483.262508,35.3749985 481.7125,35.675 L481.7125,59 L483.2875,59 L483.2875,36.875 Z M488.4625,4.25 L486.8875,4.25 L486.8875,22.175 C486.8875,24.4250113 486.237506,26.249993 484.9375,27.65 C483.637494,29.050007 481.637514,29.75 478.9375,29.75 C476.537488,29.75 474.662507,29.0250072 473.3125,27.575 C471.962493,26.1249927 471.2875,24.200012 471.2875,21.8 L471.2875,4.25 L469.7125,4.25 L469.7125,21.8 C469.7125,23.1000065 469.949998,24.3374941 470.425,25.5125 C470.900002,26.6875059 471.549996,27.6999957 472.375,28.55 C473.200004,29.4000042 474.162494,30.0749975 475.2625,30.575 C476.362505,31.0750025 477.562494,31.325 478.8625,31.325 C480.212507,31.325 481.474994,31.0750025 482.65,30.575 C483.825006,30.0749975 484.849996,29.4000042 485.725,28.55 C486.600004,27.6999957 487.274998,26.6875059 487.75,25.5125 C488.225002,24.3374941 488.4625,23.1000065 488.4625,21.8 L488.4625,4.25 Z M477.0625,35.9 C475.362492,35.6499988 473.787507,35.1000043 472.3375,34.25 C470.887493,33.3999957 469.625005,32.3375064 468.55,31.0625 C467.474995,29.7874936 466.625003,28.3625079 466,26.7875 C465.374997,25.2124921 465.0625,23.5500088 465.0625,21.8 L465.0625,4.25 L463.4875,4.25 L463.4875,22.175 C463.4875,23.975009 463.774997,25.674992 464.35,27.275 C464.925003,28.875008 465.749995,30.3249935 466.825,31.625 C467.900005,32.9250065 469.174993,34.0374954 470.65,34.9625 C472.125007,35.8875046 473.762491,36.5749977 475.5625,37.025 L475.5625,59 L477.0625,59 L477.0625,35.9 Z M480.1375,34.325 C481.737508,34.2249995 483.224993,33.8125036 484.6,33.0875 C485.975007,32.3624964 487.174995,31.4250057 488.2,30.275 C489.225005,29.1249943 490.037497,27.8250072 490.6375,26.375 C491.237503,24.9249928 491.5375,23.400008 491.5375,21.8 L491.5375,4.25 L489.9625,4.25 L489.9625,21.8 C489.9625,23.2500073 489.700003,24.6499932 489.175,26 C488.649997,27.3500068 487.925005,28.524995 487,29.525 C486.074995,30.525005 484.975006,31.324997 483.7,31.925 C482.424994,32.525003 481.012508,32.825 479.4625,32.825 C477.912492,32.825 476.462507,32.525003 475.1125,31.925 C473.762493,31.324997 472.575005,30.525005 471.55,29.525 C470.524995,28.524995 469.712503,27.3500068 469.1125,26 C468.512497,24.6499932 468.2125,23.2500073 468.2125,21.8 L468.2125,4.25 L466.6375,4.25 L466.6375,22.175 C466.6375,23.6750075 466.962497,25.1374929 467.6125,26.5625 C468.262503,27.9875071 469.137494,29.2749942 470.2375,30.425 C471.337505,31.5750058 472.612493,32.4999965 474.0625,33.2 C475.512507,33.9000035 477.037492,34.2749998 478.6375,34.325 L478.6375,59 L480.1375,59 L480.1375,34.325 Z" id="SPEAKEASY" fill="#C59C31"></path>
                <path d="M23.4125,40.9 L33.9125,40.9 L37.8125,45.25 L37.8125,47.8 C37.8125,50.200012 37.3750044,52.4124899 36.5,54.4375 C35.6249956,56.4625101 34.4375075,58.2124926 32.9375,59.6875 C31.4374925,61.1625074 29.6625102,62.299996 27.6125,63.1 C25.5624897,63.900004 23.3875115,64.3 21.0875,64.3 C16.487477,64.3 12.0125217,62.3500195 7.6625,58.45 C5.1624875,56.249989 3.2625065,53.9625119 1.9625,51.5875 C0.6624935,49.2124881 0.0125,46.5750145 0.0125,43.675 L0.0125,17.725 C0.0125,15.2749878 0.449995625,13.0125104 1.325,10.9375 C2.20000437,8.86248962 3.41249225,7.08750738 4.9625,5.6125 C6.51250775,4.13749263 8.31248975,2.98750413 10.3625,2.1625 C12.4125102,1.33749588 14.6124883,0.925 16.9625,0.925 C19.9125148,0.925 22.6249876,1.58749338 25.1,2.9125 C27.5750124,4.23750662 29.9624885,6.22498675 32.2625,8.875 C34.0125087,10.9750105 35.3749951,13.0624896 36.35,15.1375 C37.3250049,17.2125104 37.8125,19.449988 37.8125,21.85 L37.8125,24.55 L27.6875,24.55 L23.4125,20.65 L23.4125,17.725 C23.4125,16.7749953 23.3000011,16.1500015 23.075,15.85 C22.8499989,15.5499985 22.1875055,15.4 21.0875,15.4 C18.9874895,15.4 17.3625057,15.9624944 16.2125,17.0875 C15.0624942,18.2125056 14.4875,19.7999897 14.4875,21.85 L14.4875,25.45 L23.7875,25.45 L27.6875,29.8 L27.6875,39.925 L14.4875,39.925 L14.4875,47.8 C14.4875,48.6500042 14.6249986,49.1999988 14.9,49.45 C15.1750014,49.7000012 15.8624945,49.825 16.9625,49.825 C18.96251,49.825 20.5374943,49.2750055 21.6875,48.175 C22.8375057,47.0749945 23.4125,45.5750095 23.4125,43.675 L23.4125,40.9 Z M24.7625,43.675 C24.7625,46.075012 24.062507,47.9249935 22.6625,49.225 C21.262493,50.5250065 19.362512,51.175 16.9625,51.175 C14.562488,51.175 12.662507,50.5250065 11.2625,49.225 C9.862493,47.9249935 9.1625,46.075012 9.1625,43.675 L9.1625,34.675 L22.4375,34.675 L22.4375,33.1 L7.6625,33.1 L7.6625,43.675 C7.6625,45.075007 7.9124975,46.3374944 8.4125,47.4625 C8.9125025,48.5875056 9.59999562,49.5374961 10.475,50.3125 C11.3500044,51.0875039 12.3499944,51.6874979 13.475,52.1125 C14.6000056,52.5375021 15.762494,52.75 16.9625,52.75 C18.162506,52.75 19.3249944,52.5375021 20.45,52.1125 C21.5750056,51.6874979 22.5749956,51.0875039 23.45,50.3125 C24.3250044,49.5374961 25.0124975,48.5875056 25.5125,47.4625 C26.0125025,46.3374944 26.2625,45.075007 26.2625,43.675 L26.2625,42.25 L24.7625,42.25 L24.7625,43.675 Z M9.1625,17.725 C9.1625,15.324988 9.862493,13.4500068 11.2625,12.1 C12.662507,10.7499933 14.562488,10.075 16.9625,10.075 C19.362512,10.075 21.262493,10.7499933 22.6625,12.1 C24.062507,13.4500068 24.7625,15.324988 24.7625,17.725 L24.7625,19.3 L26.2625,19.3 L26.2625,17.725 C26.2625,16.324993 26.0125025,15.0500057 25.5125,13.9 C25.0124975,12.7499943 24.3250044,11.7875039 23.45,11.0125 C22.5749956,10.2374961 21.5750056,9.63750212 20.45,9.2125 C19.3249944,8.78749787 18.162506,8.575 16.9625,8.575 C15.762494,8.575 14.6000056,8.78749787 13.475,9.2125 C12.3499944,9.63750212 11.3500044,10.2374961 10.475,11.0125 C9.59999562,11.7875039 8.9125025,12.7499943 8.4125,13.9 C7.9124975,15.0500057 7.6625,16.324993 7.6625,17.725 L7.6625,28.45 L22.4375,28.45 L22.4375,26.8 L9.1625,26.8 L9.1625,17.725 Z M6.1625,17.725 C6.1625,16.124992 6.42499738,14.6625066 6.95,13.3375 C7.47500263,12.0124934 8.22499512,10.8875046 9.2,9.9625 C10.1750049,9.03749538 11.3124935,8.31250263 12.6125,7.7875 C13.9125065,7.26249737 15.362492,7 16.9625,7 C20.162516,7 22.7749899,7.98749012 24.8,9.9625 C26.8250101,11.9375099 27.8375,14.524984 27.8375,17.725 L27.8375,19.3 L29.4125,19.3 L29.4125,17.725 C29.4125,15.8749908 29.0625035,14.2000075 28.3625,12.7 C27.6624965,11.1999925 26.7375057,9.91250537 25.5875,8.8375 C24.4374942,7.76249462 23.1125075,6.925003 21.6125,6.325 C20.1124925,5.724997 18.562508,5.425 16.9625,5.425 C15.362492,5.425 13.8125075,5.724997 12.3125,6.325 C10.8124925,6.925003 9.48750575,7.76249462 8.3375,8.8375 C7.18749425,9.91250537 6.2625035,11.1999925 5.5625,12.7 C4.8624965,14.2000075 4.5125,15.8749908 4.5125,17.725 L4.5125,43.675 C4.5125,45.475009 4.8624965,47.1249925 5.5625,48.625 C6.2625035,50.1250075 7.18749425,51.4124946 8.3375,52.4875 C9.48750575,53.5625054 10.8124925,54.399997 12.3125,55 C13.8125075,55.600003 15.362492,55.9 16.9625,55.9 C18.562508,55.9 20.1124925,55.600003 21.6125,55 C23.1125075,54.399997 24.4374942,53.5625054 25.5875,52.4875 C26.7375057,51.4124946 27.6624965,50.1250075 28.3625,48.625 C29.0625035,47.1249925 29.4125,45.475009 29.4125,43.675 L29.4125,42.25 L27.8375,42.25 L27.8375,43.675 C27.8375,45.2250077 27.5750026,46.6499935 27.05,47.95 C26.5249974,49.2500065 25.7750049,50.3749952 24.8,51.325 C23.8249951,52.2750047 22.6750066,53.0124974 21.35,53.5375 C20.0249934,54.0625026 18.562508,54.325 16.9625,54.325 C15.362492,54.325 13.9125065,54.0625026 12.6125,53.5375 C11.3124935,53.0124974 10.1750049,52.2750047 9.2,51.325 C8.22499512,50.3749952 7.47500263,49.2500065 6.95,47.95 C6.42499738,46.6499935 6.1625,45.2250077 6.1625,43.675 L6.1625,31.525 L22.4375,31.525 L22.4375,30.025 L6.1625,30.025 L6.1625,17.725 Z M30.9875,43.675 C30.9875,45.7250102 30.587504,47.5999915 29.7875,49.3 C28.987496,51.0000085 27.9375065,52.449994 26.6375,53.65 C25.3374935,54.850006 23.8500084,55.7749968 22.175,56.425 C20.4999916,57.0750033 18.762509,57.4 16.9625,57.4 C15.162491,57.4 13.4250084,57.0750033 11.75,56.425 C10.0749916,55.7749968 8.5875065,54.850006 7.2875,53.65 C5.9874935,52.449994 4.937504,51.0000085 4.1375,49.3 C3.337496,47.5999915 2.9375,45.7250102 2.9375,43.675 L2.9375,17.725 C2.9375,15.6249895 3.337496,13.7250085 4.1375,12.025 C4.937504,10.3249915 5.9874935,8.875006 7.2875,7.675 C8.5875065,6.474994 10.0749916,5.55000325 11.75,4.9 C13.4250084,4.24999675 15.162491,3.925 16.9625,3.925 C18.762509,3.925 20.4999916,4.24999675 22.175,4.9 C23.8500084,5.55000325 25.3374935,6.474994 26.6375,7.675 C27.9375065,8.875006 28.987496,10.3249915 29.7875,12.025 C30.587504,13.7250085 30.9875,15.6249895 30.9875,17.725 L30.9875,19.3 L32.4875,19.3 L32.4875,17.725 C32.4875,15.4749888 32.087504,13.4000095 31.2875,11.5 C30.487496,9.5999905 29.387507,7.97500675 27.9875,6.625 C26.587493,5.27499325 24.9375095,4.22500375 23.0375,3.475 C21.1374905,2.72499625 19.1125108,2.35 16.9625,2.35 C14.8124892,2.35 12.7875095,2.72499625 10.8875,3.475 C8.9874905,4.22500375 7.337507,5.27499325 5.9375,6.625 C4.537493,7.97500675 3.437504,9.5999905 2.6375,11.5 C1.837496,13.4000095 1.4375,15.4749888 1.4375,17.725 L1.4375,43.675 C1.4375,45.9250112 1.837496,47.9874906 2.6375,49.8625 C3.437504,51.7375094 4.537493,53.3624931 5.9375,54.7375 C7.337507,56.1125069 8.9874905,57.1749962 10.8875,57.925 C12.7875095,58.6750038 14.8124892,59.05 16.9625,59.05 C19.1125108,59.05 21.1374905,58.6750038 23.0375,57.925 C24.9375095,57.1749962 26.587493,56.1125069 27.9875,54.7375 C29.387507,53.3624931 30.487496,51.7375094 31.2875,49.8625 C32.087504,47.9874906 32.4875,45.9250112 32.4875,43.675 L32.4875,42.25 L30.9875,42.25 L30.9875,43.675 Z M38.6375,12.475 L38.6375,1.9 L72.6875,1.9 L76.5875,6.25 L76.5875,16.375 L64.8875,16.375 L64.8875,63.25 L54.6875,63.25 L50.3375,59.35 L50.3375,16.375 L42.9875,16.375 L38.6375,12.475 Z M71.3375,3.25 L39.9875,3.25 L39.9875,4.9 L71.3375,4.9 L71.3375,3.25 Z M53.3375,9.55 L39.9875,9.55 L39.9875,11.125 L51.7625,11.125 L51.7625,58 L53.3375,58 L53.3375,9.55 Z M59.5625,11.125 L71.3375,11.125 L71.3375,9.55 L57.9125,9.55 L57.9125,58 L59.5625,58 L59.5625,11.125 Z M56.4125,7.975 L71.3375,7.975 L71.3375,6.475 L39.9875,6.475 L39.9875,7.975 L54.8375,7.975 L54.8375,58 L56.4125,58 L56.4125,7.975 Z M92.5625,6.25 L92.5625,25.45 L101.4875,25.45 L101.4875,1.9 L111.9875,1.9 L115.8875,6.25 L115.8875,63.25 L105.7625,63.25 L101.4875,59.35 L101.4875,39.925 L92.5625,39.925 L92.5625,63.25 L82.4375,63.25 L78.0875,59.35 L78.0875,1.9 L88.5875,1.9 L92.5625,6.25 Z M104.4125,33.1 L85.7375,33.1 L85.7375,58 L87.2375,58 L87.2375,34.675 L102.8375,34.675 L102.8375,58 L104.4125,58 L104.4125,33.1 Z M81.0875,3.25 L79.5125,3.25 L79.5125,58 L81.0875,58 L81.0875,3.25 Z M107.4875,3.25 L105.9875,3.25 L105.9875,30.025 L84.2375,30.025 L84.2375,3.25 L82.5875,3.25 L82.5875,58 L84.2375,58 L84.2375,31.525 L105.9875,31.525 L105.9875,58 L107.4875,58 L107.4875,3.25 Z M104.4125,3.25 L102.8375,3.25 L102.8375,26.8 L87.2375,26.8 L87.2375,3.25 L85.7375,3.25 L85.7375,28.45 L104.4125,28.45 L104.4125,3.25 Z M110.5625,3.25 L109.0625,3.25 L109.0625,58 L110.5625,58 L110.5625,3.25 Z" id="eth" fill="#FFFFFF"></path>
            </g>
        </g>
    </g>
</svg>