<?xml version="1.0" encoding="UTF-8"?>
<svg width="68px" height="77px" viewBox="0 0 68 77" version="1.1" xmlns="http://www.w3.org/2000/svg" xmlns:xlink="http://www.w3.org/1999/xlink">
    <!-- Generator: Sketch 52.2 (67145) - http://www.bohemiancoding.com/sketch -->
    <title>Group</title>
    <desc>Created with Sketch.</desc>
    <g id="Page-1" stroke="none" stroke-width="1" fill="none" fill-rule="evenodd">
        <g id="Artboard" transform="translate(-246.000000, -256.000000)">
            <g id="noun_Lost-Money_899110" transform="translate(246.000000, 256.000000)">
                <g id="Group">
                    <path d="M31.5,39.8 L35.9,39.8 C37.9,39.8 39.7,41.1 39.7,42.6 L43.1,42.6 C43.1,39.2 39.9,36.5 35.9,36.5 L35.7,36.5 L35.7,33.5 L32.3,33.5 L32.3,36.5 L31.5,36.5 C27.6,36.5 24.4,39.2 24.4,42.6 L24.4,42.8 C24.4,44.7 25.7,46.4 28.4,47.8 L28.6,47.9 L37.6,49.7 C39,50.5 39.7,51.2 39.7,51.6 L39.7,51.8 C39.7,53.3 38,54.6 35.9,54.6 L31.5,54.6 C29.5,54.6 27.7,53.3 27.7,51.8 L27.7,50.4 L24.3,50.4 L24.3,51.8 C24.3,55.2 27.5,57.9 31.4,57.9 L32.2,57.9 L32.2,61.1 L35.6,61.1 L35.6,57.9 L35.8,57.9 C39.7,57.9 42.9,55.2 42.9,51.8 L42.9,51.6 C42.9,50.3 42.2,48.3 38.8,46.6 L38.6,46.5 L38.3,46.4 L38,46.3 L29.6,44.6 C28.2,43.8 27.6,43.1 27.6,42.7 L27.6,42.5 C27.8,41.1 29.5,39.8 31.5,39.8 Z" id="Path" fill="#C59C31"></path>
                    <path d="M8.1,44 L5.1,42.4 C3.6,45.2 2.4,48 1.6,50.8 L4.8,51.8 C5.6,49.1 6.7,46.5 8.1,44 Z" id="Path" fill="#FFFFFF"></path>
                    <path d="M16,33.2 L13.5,30.9 C11.4,33.2 9.5,35.6 7.9,37.9 L10.7,39.8 C12.2,37.6 14,35.4 16,33.2 Z" id="Path" fill="#FFFFFF"></path>
                    <path d="M23.8,21.4 C21.4,23.2 19.1,25.2 17,27.2 L19.3,29.6 C21.3,27.6 23.5,25.8 25.8,24 L23.8,21.4 Z" id="Path" fill="#FFFFFF"></path>
                    <path d="M3.5,59.8 C3.5,58.9 3.6,58 3.7,57.1 C3.7,56.8 3.8,56.6 3.8,56.3 L0.5,55.8 C0.5,56.1 0.4,56.4 0.4,56.7 C0.3,57.8 0.2,58.8 0.2,59.8 C0.2,61.8 0.5,63.6 1,65.2 L4.2,64.2 C3.7,62.9 3.5,61.4 3.5,59.8 Z" id="Path" fill="#FFFFFF"></path>
                    <path d="M61.8,49.1 L65,47.9 C64,45.2 62.7,42.5 61.1,39.8 L58.2,41.5 C59.6,44 60.8,46.5 61.8,49.1 Z" id="Path" fill="#FFFFFF"></path>
                    <path d="M52.5,28.5 L50,30.8 C52,32.9 53.8,35.2 55.4,37.4 L58.1,35.4 C56.5,33.1 54.6,30.7 52.5,28.5 Z" id="Path" fill="#FFFFFF"></path>
                    <path d="M6.2,68 L3.6,70.2 C5.5,72.5 8.2,74.3 11.6,75.4 L12.7,72.2 C9.9,71.3 7.7,69.9 6.2,68 Z" id="Path" fill="#FFFFFF"></path>
                    <path d="M67.1,56.7 C66.9,55.4 66.7,54.2 66.4,52.9 L63.1,53.7 C63.4,54.9 63.6,56 63.7,57.2 C63.8,58.1 63.9,59 63.9,59.9 C63.9,60.6 63.9,61.2 63.8,61.8 L67.2,62.2 C67.3,61.4 67.3,60.7 67.3,59.9 C67.3,58.8 67.2,57.8 67.1,56.7 Z" id="Path" fill="#FFFFFF"></path>
                    <path d="M57.2,71.2 L58.7,74.2 C61.8,72.6 64.2,70.3 65.6,67.5 L62.6,66 C61.5,68.1 59.7,69.9 57.2,71.2 Z" id="Path" fill="#FFFFFF"></path>
                    <path d="M48.7,73.2 L44.5,73.2 L44.5,76.6 L48.7,76.6 C48.8,76.6 50.9,76.6 53.6,76 L52.8,72.7 C50.6,73.2 48.8,73.2 48.7,73.2 Z" id="Path" fill="#FFFFFF"></path>
                    <path d="M16.7,13.6 L25.5,21.8 C25.8,22.1 26.2,22.3 26.7,22.3 L40.5,22.3 C41.2,22.7 43.5,24.3 46.7,27.3 L49,24.8 C47,22.9 45.1,21.3 43.7,20.3 L50.9,13.6 C51.1,13.4 51.2,13.2 51.3,13 C51.8,11.9 51.7,10.6 51.3,9.5 C50.9,8.4 49.9,7.5 48.8,7.1 L45,5.6 C45,5.6 45,5.6 45,5.6 C45,2.8 42.8,0.6 40,0.6 L27.4,0.6 C24.6,0.6 22.4,2.8 22.4,5.6 C22.4,5.6 22.4,5.6 22.4,5.6 L18.7,7.1 C16.4,8 15.2,10.7 16.2,13 C16.4,13.2 16.5,13.4 16.7,13.6 Z M20.1,10.2 L23.9,8.7 L26.7,13.9 C27,14.5 27.6,14.8 28.2,14.8 C28.5,14.8 28.7,14.7 29,14.6 C29.8,14.2 30.1,13.1 29.7,12.3 L26.2,5.8 C26.1,5.7 26,5.6 26,5.5 L25.9,5.4 C26,4.6 26.7,4 27.5,4 L40,4 C40.8,4 41.5,4.6 41.6,5.4 L41.4,6 L38,12.2 C37.6,13 37.9,14 38.7,14.5 C39,14.6 39.2,14.7 39.5,14.7 C40.1,14.7 40.7,14.4 41,13.8 L43.8,8.7 L47.5,10.2 C47.8,10.3 48,10.5 48.2,10.8 C48.3,11 48.3,11.2 48.3,11.4 L40.4,18.8 L27.3,18.8 L19.4,11.4 C19.2,10.9 19.5,10.4 20.1,10.2 Z" id="Shape" fill="#FFFFFF" fill-rule="nonzero"></path>
                    <path d="M48.1,69.5 C48.9,69.1 49.2,68 48.8,67.2 C48.4,66.4 47.3,66.1 46.5,66.5 C37.5,71.3 21.8,73.2 17.3,73 C16.4,72.9 15.6,73.7 15.6,74.6 C15.6,75.4 16.1,76.1 16.9,76.3 C16.9,76.3 18.7,76.5 18.8,76.5 L25.9,75.7 C28.9,75.7 39.7,76.5 39.7,76.5 L39.7,73.1 L38.7,73.1 C42,72.3 45.3,71 48.1,69.5 Z" id="Path" fill="#FFFFFF"></path>
                </g>
            </g>
        </g>
    </g>
</svg>