<?xml version="1.0" encoding="UTF-8"?>
<svg width="15px" height="15px" viewBox="0 0 15 15" version="1.1" xmlns="http://www.w3.org/2000/svg" xmlns:xlink="http://www.w3.org/1999/xlink">
    <!-- Generator: Sketch 49.2 (51160) - http://www.bohemiancoding.com/sketch -->
    <title>Icon</title>
    <desc>Created with Sketch.</desc>
    <defs></defs>
    <g id="manager_dashboard" stroke="none" stroke-width="1" fill="none" fill-rule="evenodd" opacity="0.5">
        <g id="portfolio_popup" transform="translate(-55.000000, -108.000000)" fill="#000000">
            <path d="M63.777894,114.313989 L71.1346298,114.313989 C71.7106848,114.313989 72.1776695,114.780035 72.1776695,115.363961 C72.1776695,115.943845 71.7104884,116.413933 71.1346298,116.413933 L63.777894,116.413933 L63.777894,123.770669 C63.777894,124.346724 63.3118484,124.813708 62.7279221,124.813708 C62.1480386,124.813708 61.6779501,124.346527 61.6779501,123.770669 L61.6779501,116.413933 L54.3212143,116.413933 C53.7451594,116.413933 53.2781746,115.947887 53.2781746,115.363961 C53.2781746,114.784078 53.7453557,114.313989 54.3212143,114.313989 L61.6779501,114.313989 L61.6779501,106.957253 C61.6779501,106.381198 62.1439957,105.914214 62.7279221,105.914214 C63.3078056,105.914214 63.777894,106.381395 63.777894,106.957253 L63.777894,114.313989 Z" id="Icon" style="mix-blend-mode: multiply;" transform="translate(62.727922, 115.363961) rotate(-45.000000) translate(-62.727922, -115.363961) "></path>
        </g>
    </g>
</svg>