<?xml version="1.0" encoding="UTF-8"?>
<svg width="141px" height="45px" viewBox="0 0 141 45" version="1.1" xmlns="http://www.w3.org/2000/svg" xmlns:xlink="http://www.w3.org/1999/xlink">
    <!-- Generator: Sketch 49 (51002) - http://www.bohemiancoding.com/sketch -->
    <title>Group 8</title>
    <desc>Created with Sketch.</desc>
    <defs></defs>
    <g id="Page-1" stroke="none" stroke-width="1" fill="none" fill-rule="evenodd">
        <g id="Desktop-HD" transform="translate(-137.000000, -78.000000)">
            <g id="Group-2" transform="translate(140.000000, 78.000000)">
                <g id="Group-8">
                    <path d="M79.0678,5.616 L77.2506,7.622 C76.519,6.9376 75.6222,6.6072 74.7726,6.5836 C73.0734,6.5364 71.4922,7.74 71.4686,10.0528 C71.445,12.0116 72.8846,13.3568 74.5366,13.4512 C75.4806,13.4984 76.4954,13.1444 77.345,12.2476 L79.1858,14.1356 C77.8406,15.8112 76.401,16.2832 74.5838,16.2832 C70.5246,16.2832 68.3062,13.2624 68.3062,10.0292 C68.3298,6.796 70.5954,3.728 74.5838,3.7044 C76.2594,3.7044 77.5574,4.1292 79.0678,5.616 Z M81.0974,3.9168 L83.717,3.9168 L83.9766,5.1676 C85.3926,3.374 87.8942,3.4212 89.4754,4.79 L88.1066,7.2208 C86.5962,6.2296 84.2834,6.5836 84.2834,8.5424 L84.2834,16 L81.0974,16 L81.0974,3.9168 Z M96.7678,12.6488 L96.8858,12.6488 L97.4522,10.0292 L99.5762,4.0348 L103.069,4.0348 L97.6646,18.0532 C96.7442,20.4132 94.1482,20.7908 92.1894,20.4132 L92.1894,17.9824 C94.2662,18.1948 94.7618,17.8172 95.2338,15.7404 C93.7706,12.1768 91.7174,7.5748 90.2778,4.0348 L93.7706,4.0348 L96.225,10.0528 L96.7678,12.6488 Z M115.8366,9.9584 C115.8366,13.3096 113.689,16.1888 110.0546,16.1888 C109.5118,16.1888 108.497,16 107.907,15.528 L107.907,20.484 L104.721,20.484 L104.721,4.0348 L107.1046,4.0348 L107.3878,5.262 C108.3318,4.0584 109.5826,3.846 110.5738,3.846 C113.7598,3.846 115.8366,6.5836 115.8366,9.9584 Z M107.9542,7.504 L107.9542,12.9792 C110.2198,14.2064 112.6034,13.0028 112.6034,9.9584 C112.6034,7.976 111.5886,6.6072 109.7478,6.6072 C109.1814,6.6072 108.5206,6.796 107.9542,7.504 Z M123.6482,13.2624 L123.6482,16 C120.7454,16.4956 118.2438,15.3392 118.3618,12.1532 L118.3618,6.6072 L116.5682,6.6072 L116.5682,4.0348 L118.3618,4.0348 L118.3618,0.9196 L121.5006,0.5656 L121.5006,4.0348 L123.6482,4.0348 L123.6482,6.6072 L121.5006,6.6072 L121.5006,12.0824 C121.5006,12.8612 122.2794,13.4512 123.6482,13.2624 Z M128.3446,10.0292 C128.3446,12.224 130.0674,13.3804 131.507,13.3804 C133.0174,13.3804 134.6222,12.224 134.6222,10.0292 C134.6222,7.6928 133.0174,6.678 131.507,6.678 C130.0674,6.678 128.3446,7.7636 128.3446,10.0292 Z M137.8082,10.0292 C137.8082,13.7108 135.1178,16.3304 131.507,16.3304 C127.9198,16.3304 125.1822,13.7108 125.1822,10.0292 C125.1822,6.2532 127.9198,3.7044 131.507,3.7044 C135.1178,3.7044 137.8082,6.2532 137.8082,10.0292 Z M72.3868,32.448 C72.6228,32.5188 72.8352,32.5424 73.0476,32.5896 C75.1244,32.9436 77.272,34.0764 77.272,36.46 C77.272,39.292 74.5816,40.3068 72.5992,40.3068 C71.0416,40.3068 69.3424,39.6932 68.0444,37.9704 L69.7672,36.1296 C70.5224,37.0028 71.608,37.4748 72.6464,37.522 C73.2836,37.5456 74.086,37.0972 74.086,36.46 C74.086,35.5868 73.1656,35.4688 72.552,35.3508 C70.5932,34.9968 68.5636,33.7932 68.54,31.4804 C68.54,29.026 70.7348,27.7044 73.024,27.7044 C74.2512,27.7044 75.6672,28.1292 77.0596,29.5688 L75.3368,31.3152 C74.4872,30.678 73.6612,30.442 73.0004,30.442 C72.4576,30.442 71.5844,30.8432 71.5844,31.5984 C71.5844,31.9996 71.9856,32.33 72.3868,32.448 Z M79.9444,33.9584 C79.9444,30.5836 82.0212,27.846 85.2072,27.846 C86.1984,27.846 87.4492,28.0584 88.3932,29.262 L88.6764,28.0348 L91.06,28.0348 L91.06,44.484 L87.874,44.484 L87.874,39.528 C87.284,40 86.2692,40.1888 85.7264,40.1888 C82.092,40.1888 79.9444,37.3096 79.9444,33.9584 Z M87.8268,36.9792 L87.8268,31.504 C87.2604,30.796 86.5996,30.6072 86.0332,30.6072 C84.1924,30.6072 83.1776,31.976 83.1776,33.9584 C83.1776,37.0028 85.5612,38.2064 87.8268,36.9792 Z M106.618,40 L103.9748,39.9764 L103.4792,38.8908 C102.8184,39.7876 101.662,40.2124 100.3168,40.1416 C97.6736,40 95.526,38.2064 95.526,35.1384 L95.526,28.0348 L98.7592,28.0348 L98.7592,34.9968 C98.7592,36.6016 99.9628,37.4984 101.3552,37.4984 C102.016,37.4984 102.7476,37.3096 103.3848,36.8848 L103.3848,28.0348 L106.618,28.0348 L106.618,40 Z M113.562,36.0116 C113.5148,38.2064 116.866,38.0176 118.0696,36.7668 L118.0696,34.8788 C117.4796,34.6192 116.7244,34.454 115.9692,34.454 C114.742,34.454 113.5856,34.9024 113.562,36.0116 Z M121.2556,40 L118.6832,40 L118.2584,38.938 C117.5032,39.882 116.3232,40.2596 115.3792,40.2596 C112.2404,40.2596 110.5648,38.3716 110.5648,36.106 C110.5648,33.392 113.1844,32.0232 115.7568,32.0704 C116.5592,32.094 117.338,32.2592 118.046,32.5424 C117.9752,30.8668 116.9132,30.2532 115.686,30.2296 C114.506,30.206 113.1136,30.6072 112.4056,31.1972 L111.32,29.1912 C112.8068,27.9876 114.3172,27.6572 115.9692,27.6572 C118.7068,27.6572 121.2556,29.1204 121.2556,32.6132 L121.2556,40 Z M124.8956,34.0764 C124.8956,30.7252 127.0432,27.846 130.6776,27.846 C131.2204,27.846 132.2116,28.0348 132.8016,28.5068 L132.778,23.48 L136.0112,23.48 L136.0112,40 L133.6276,40 L133.3444,38.7728 C132.4004,39.9764 131.1496,40.1888 130.1584,40.1888 C126.9724,40.1888 124.8956,37.4512 124.8956,34.0764 Z M132.778,36.5308 L132.778,31.1264 C132.2824,30.7724 131.6452,30.6544 131.1968,30.6544 C129.4032,30.6544 128.1288,31.7164 128.1288,34.0764 C128.1288,36.0588 129.1436,37.4276 130.9844,37.4276 C131.5508,37.4276 132.2116,37.2388 132.778,36.5308 Z" id="crypto-squad" fill="#FFFFFF"></path>
                    <g id="Group" transform="translate(0.000000, 6.000000)" stroke="#FF95D7" stroke-width="5.6">
                        <circle id="Oval" cx="16" cy="16" r="16"></circle>
                        <circle id="Oval" cx="34.4" cy="16" r="16"></circle>
                    </g>
                </g>
            </g>
        </g>
    </g>
</svg>